<?xml version="1.0" encoding="UTF-8"?>
<svg xmlns="http://www.w3.org/2000/svg" version="1.1" width="792" height="666" style="background-color:transparent;">
  <path d="M0 0 C261.36 0 522.72 0 792 0 C792 219.78 792 439.56 792 666 C530.64 666 269.28 666 0 666 C0 446.22 0 226.44 0 0 Z " fill="#FEFEFE" transform="translate(0,0)"/>
  <path d="M0 0 C3.08451095 0.01069997 6.16843656 0.00005863 9.25292969 -0.01269531 C20.90120346 -0.02075075 32.19378522 0.54013764 43.72167969 2.26074219 C45.01114502 2.45192627 46.30061035 2.64311035 47.62915039 2.84008789 C93.12254725 9.99897981 137.69824081 32.23187454 171.12792969 63.81933594 C173.27495725 65.84025797 175.45891339 67.748558 177.72167969 69.63574219 C188.91637035 79.42244083 198.03182101 91.27113994 206.72167969 103.26074219 C207.47167236 104.29013916 207.47167236 104.29013916 208.23681641 105.34033203 C234.76348611 142.18730184 248.22928396 184.51185186 252.72167969 229.26074219 C252.80446198 230.05460264 252.88724428 230.8484631 252.97253513 231.66637993 C253.59494331 237.96713919 253.86115569 244.176718 253.83520508 250.50561523 C253.8353511 251.46307144 253.83549713 252.42052765 253.83564758 253.40699768 C253.8349585 256.52884293 253.82721379 259.65062629 253.81933594 262.77246094 C253.81746818 264.95392321 253.81604597 267.13538591 253.81504822 269.31684875 C253.81125119 275.02628765 253.80144527 280.73570065 253.79034424 286.44512939 C253.78006928 292.28405405 253.77553762 298.12298295 253.77050781 303.96191406 C253.75982019 315.39486808 253.742778 326.82780297 253.72167969 338.26074219 C256.38591886 337.82450691 259.04811921 337.37916367 261.70996094 336.92871094 C262.82328796 336.7478595 262.82328796 336.7478595 263.95910645 336.56335449 C294.71564212 331.30203795 318.56256672 309.77140258 336.27929688 285.30175781 C339.70897827 280.44865415 342.79033251 275.43148765 345.72167969 270.26074219 C346.36363281 269.13925781 347.00558594 268.01777344 347.66699219 266.86230469 C353.20821167 256.94414748 357.58593902 246.55941461 361.90893555 236.06396484 C362.72167969 234.26074219 362.72167969 234.26074219 363.72167969 233.26074219 C365.38785084 233.22010387 367.05556064 233.21802119 368.72167969 233.26074219 C366.75384153 244.59134715 361.05793994 255.045064 355.80859375 265.16064453 C354.71281413 267.2778719 353.63480217 269.40353603 352.55761719 271.53027344 C332.03674362 311.6367651 298.37677368 347.7553568 255.72167969 364.26074219 C254.73167969 364.26074219 253.74167969 364.26074219 252.72167969 364.26074219 C252.72813224 365.27380684 252.73458479 366.28687149 252.74123287 367.33063507 C252.89665604 391.98505827 253.01167214 416.63941791 253.08436489 441.2942276 C253.12045337 453.21716223 253.16965164 465.13977315 253.24975586 477.0625 C253.31954468 487.45483857 253.36469176 497.84694271 253.38029915 508.23950911 C253.38942196 513.74200431 253.41084884 519.24382885 253.46179008 524.74610901 C253.50936751 529.92712032 253.52394754 535.1071859 253.51343346 540.28839493 C253.51535638 542.18790454 253.52924333 544.08744635 253.55611801 545.98676682 C253.77316563 562.12003489 253.77316563 562.12003489 249.54701233 567.26599121 C239.34765066 576.79925668 229.47659014 573.26074219 214.72167969 573.26074219 C214.72167969 507.92074219 214.72167969 442.58074219 214.72167969 375.26074219 C211.09167969 375.92074219 207.46167969 376.58074219 203.72167969 377.26074219 C171.36789136 381.34913042 140.5374488 378.74479387 108.72167969 372.26074219 C107.9124707 372.09848145 107.10326172 371.9362207 106.26953125 371.76904297 C92.77856355 369.01547378 79.75475109 364.64847273 66.72167969 360.26074219 C65.66674316 359.90802246 64.61180664 359.55530273 63.52490234 359.19189453 C48.00444449 353.95822414 32.84638606 347.97016375 17.72167969 341.69824219 C16.4498584 341.17147385 16.4498584 341.17147385 15.15234375 340.63406372 C3.34240935 335.73030009 -8.3394524 330.5750009 -19.98577881 325.29592896 C-25.83387482 322.6552476 -31.71158905 320.08118406 -37.59082031 317.51074219 C-38.25786987 317.21904144 -38.92491943 316.9273407 -39.61218262 316.62680054 C-54.7657644 310.00706158 -69.98086026 303.54096065 -85.27832031 297.26074219 C-87.03257324 296.53975342 -87.03257324 296.53975342 -88.82226562 295.80419922 C-126.4769838 280.42701871 -164.04658664 269.19724799 -204.27832031 262.26074219 C-204.27832031 364.89074219 -204.27832031 467.52074219 -204.27832031 573.26074219 C-229.27832031 573.26074219 -229.27832031 573.26074219 -237.27832031 568.26074219 C-243.84966175 561.51647071 -243.56416455 554.11317502 -243.51882935 545.22598267 C-243.5205382 544.00395751 -243.52224705 542.78193236 -243.52400768 541.52287614 C-243.5267296 538.13867658 -243.52048963 534.754709 -243.51045156 531.37053752 C-243.50180679 527.71825721 -243.50473794 524.06598395 -243.5062561 520.41369629 C-243.5073043 514.08843925 -243.50103448 507.76322349 -243.48978043 501.43797684 C-243.47351961 492.29276169 -243.46831682 483.14756649 -243.46580444 474.00233845 C-243.46142825 459.16447083 -243.44812121 444.32662521 -243.42919922 429.48876953 C-243.41083845 415.07601023 -243.39668291 400.66325691 -243.38818359 386.25048828 C-243.38765815 385.36193994 -243.3871327 384.4733916 -243.38659133 383.55791755 C-243.38398124 379.10028816 -243.38145383 374.64265873 -243.37896752 370.18502927 C-243.35823739 333.21025137 -243.32301393 296.23549849 -243.27832031 259.26074219 C-246.30374328 259.72012823 -249.32829047 260.18436409 -252.35253906 260.65136719 C-253.2016687 260.77979004 -254.05079834 260.90821289 -254.92565918 261.04052734 C-281.85515209 265.22248863 -304.17678683 280.83639258 -320.37597656 302.43945312 C-326.26862446 310.66737064 -331.31869009 319.45037625 -336.27832031 328.26074219 C-336.62604492 328.86966309 -336.97376953 329.47858398 -337.33203125 330.10595703 C-343.93542116 341.71825977 -349.08734499 353.96742316 -354.27832031 366.26074219 C-355.92832031 365.93074219 -357.57832031 365.60074219 -359.27832031 365.26074219 C-357.1424621 357.0645465 -353.92094156 349.54683339 -350.34082031 341.88574219 C-350.05653168 341.27535095 -349.77224304 340.66495972 -349.4793396 340.03607178 C-341.69845017 323.39661791 -332.35510223 307.91006981 -321.27832031 293.26074219 C-320.62605469 292.39578125 -319.97378906 291.53082031 -319.30175781 290.63964844 C-300.69659993 266.71326228 -275.22452416 244.58066088 -246.27832031 234.26074219 C-245.28832031 234.26074219 -244.29832031 234.26074219 -243.27832031 234.26074219 C-243.24391846 233.62386475 -243.2095166 232.9869873 -243.17407227 232.33081055 C-240.57114286 187.2012608 -225.78197474 143.09915495 -199.27832031 106.26074219 C-198.81312988 105.6076709 -198.34793945 104.95459961 -197.86865234 104.28173828 C-191.71367748 95.68780579 -185.18461374 87.68492404 -177.89550781 80.03027344 C-175.84997176 77.86566887 -173.91522408 75.68572489 -172.02832031 73.38574219 C-169.42812626 70.3017911 -166.51792261 67.72338308 -163.44238281 65.12011719 C-161.99065955 63.87278818 -160.56839193 62.59040089 -159.17675781 61.27636719 C-141.84634588 44.95838482 -120.76499362 32.29973913 -99.27832031 22.26074219 C-97.71404297 21.514375 -97.71404297 21.514375 -96.11816406 20.75292969 C-76.84880486 12.01366641 -56.12152452 5.80618081 -35.27832031 2.26074219 C-34.22757324 2.07527832 -33.17682617 1.88981445 -32.09423828 1.69873047 C-21.39817295 0.02686867 -10.80496457 -0.04449304 0 0 Z " fill="#176EA0" transform="translate(382.2783203125,60.7392578125)"/>
  <path d="M0 0 C2.84977687 0.0085097 5.69753798 -0.02040254 8.54711914 -0.05200195 C25.703962 -0.11750296 42.29503648 2.57130508 58.79907227 7.25854492 C60.14799561 7.6358374 60.14799561 7.6358374 61.52416992 8.02075195 C91.38747718 16.61560887 123.38376421 32.61104042 144.77563477 55.56713867 C146.48257055 57.37558826 148.25183153 58.93465786 150.17407227 60.50854492 C154.08262112 63.79101043 157.27252416 67.5460241 160.54907227 71.44604492 C161.65895508 72.70674805 161.65895508 72.70674805 162.79125977 73.99291992 C179.83318676 93.70275242 193.74534025 117.54842374 201.54907227 142.44604492 C201.92104736 143.60354248 201.92104736 143.60354248 202.30053711 144.78442383 C205.49874265 154.8604483 208.02144141 164.97191586 209.86157227 175.38354492 C210.10061279 176.73041382 210.10061279 176.73041382 210.34448242 178.10449219 C212.84333394 193.2339774 212.6847846 208.40522094 212.64672852 223.68823242 C212.64485974 225.91024748 212.64343801 228.13226295 212.6424408 230.35427856 C212.63865181 236.15738088 212.62885308 241.96045752 212.61773682 247.7635498 C212.60744424 253.70328423 212.60292648 259.64302287 212.59790039 265.58276367 C212.58722701 277.2038686 212.5701949 288.82495461 212.54907227 300.44604492 C210.19557939 300.30212191 207.8423986 300.15461442 205.48925781 300.00512695 C204.17877975 299.92328156 202.8683017 299.84143616 201.51811218 299.7571106 C134.63498711 294.51527761 71.13189216 263.375245 11.20776367 235.60473633 C10.42467834 235.24188538 9.64159302 234.87903442 8.83477783 234.50518799 C7.3590792 233.82138339 5.8834477 233.13743389 4.40789795 232.45330811 C-15.39869049 223.27588051 -35.41116587 214.80332998 -55.75610352 206.88647461 C-58.76300978 205.7142302 -61.7624098 204.52578126 -64.75952148 203.32885742 C-85.26154878 195.29145881 -107.31451715 189.28169563 -129.05151367 185.83569336 C-131.46620141 185.44356458 -133.86692319 184.99859872 -136.27124023 184.54760742 C-158.91800028 180.5416472 -182.72437043 181.57963229 -205.45092773 184.44604492 C-203.33256843 161.36631827 -196.70634113 139.20850918 -186.45092773 118.44604492 C-186.09772461 117.72723145 -185.74452148 117.00841797 -185.38061523 116.26782227 C-180.1728788 105.78912599 -174.2465878 95.96736421 -167.45092773 86.44604492 C-166.70198242 85.37741211 -165.95303711 84.3087793 -165.18139648 83.20776367 C-153.30697058 66.90746006 -137.17134309 50.697753 -120.45092773 39.44604492 C-119.8634375 39.03596191 -119.27594727 38.62587891 -118.6706543 38.20336914 C-98.87607982 24.40822996 -77.63686306 14.08291117 -54.45092773 7.44604492 C-53.69489258 7.22625977 -52.93885742 7.00647461 -52.15991211 6.7800293 C-34.99937303 1.8792986 -17.81206878 -0.08061136 0 0 Z " fill="#FEFEFE" transform="translate(384.450927734375,99.553955078125)"/>
  <path d="M0 0 C1.00659668 0.26200195 2.01319336 0.52400391 3.05029297 0.79394531 C35.48177769 9.3233897 66.66743804 22.8713153 97 37 C98.57790508 37.73368415 100.15587058 38.46723836 101.73388672 39.20068359 C104.3062641 40.39646713 106.8786395 41.59225488 109.45097351 42.78813171 C112.11304955 44.02563525 114.77526661 45.26283502 117.4375 46.5 C118.31912811 46.9099118 119.20075623 47.31982361 120.10910034 47.74215698 C135.96035575 55.1077927 151.88891191 62.21808964 168 69 C169.26721794 69.53794704 170.53430575 70.07620073 171.80126953 70.61474609 C217.17783022 89.86089975 263.03987101 102.71457804 312 109 C312 120.88 312 132.76 312 145 C276.03290944 151.53947101 241.61501083 149.25833689 206 142 C205.19079102 141.83773926 204.38158203 141.67547852 203.54785156 141.50830078 C190.05688386 138.7547316 177.0330714 134.38773054 164 130 C162.94506348 129.64728027 161.89012695 129.29456055 160.80322266 128.93115234 C145.28276481 123.69748196 130.12470637 117.70942156 115 111.4375 C114.15211914 111.08632111 113.30423828 110.73514221 112.43066406 110.37332153 C100.62072966 105.46955791 88.93886791 100.31425872 77.2925415 95.03518677 C71.44444549 92.39450541 65.56673126 89.82044187 59.6875 87.25 C59.02045044 86.95829926 58.35340088 86.66659851 57.6661377 86.36605835 C42.51255591 79.74631939 27.29746005 73.28021846 12 67 C10.83049805 66.51934082 9.66099609 66.03868164 8.45605469 65.54345703 C-29.19866349 50.16627652 -66.76826633 38.93650581 -107 32 C-107 134.63 -107 237.26 -107 343 C-107.33 343 -107.66 343 -108 343 C-108.02298842 303.88285113 -108.04055982 264.76570316 -108.05106533 225.64854886 C-108.05231574 221.00959571 -108.05361009 216.37064258 -108.05493164 211.73168945 C-108.05519395 210.80832313 -108.05545626 209.88495681 -108.05572652 208.93360969 C-108.06005436 194.06619309 -108.06792571 179.19878043 -108.0771528 164.33136616 C-108.08657017 149.02742979 -108.09207255 133.72349546 -108.09408849 118.41955632 C-108.09532651 109.84408049 -108.09827949 101.2686129 -108.10573006 92.69314003 C-108.16450945 23.11140726 -108.16450945 23.11140726 -107 -6 C-75.88558266 -18.95144618 -30.81631435 -8.27785109 0 0 Z " fill="#51A7EF" transform="translate(285,291)"/>
  <path d="M0 0 C1.2065625 0.0309375 1.2065625 0.0309375 2.4375 0.0625 C0.46966184 11.39310497 -5.22623975 21.84682181 -10.47558594 31.96240234 C-11.57136555 34.07962972 -12.64937752 36.20529384 -13.7265625 38.33203125 C-34.44476423 78.82418585 -67.8926435 113.90033374 -110.5625 131.0625 C-111.2225 131.0625 -111.8825 131.0625 -112.5625 131.0625 C-113.3352416 114.6866021 -113.70257703 98.35775267 -113.66015625 81.96484375 C-113.65828327 79.78097059 -113.65686355 77.597097 -113.65586853 75.41322327 C-113.65211245 69.75988535 -113.6423443 64.10657453 -113.63116455 58.45324707 C-113.62079878 52.64656948 -113.61633897 46.83988737 -113.61132812 41.03320312 C-113.60071325 29.70962373 -113.58372383 18.38606415 -113.5625 7.0625 C-113.2325 7.0625 -112.9025 7.0625 -112.5625 7.0625 C-112.5625 39.4025 -112.5625 71.7425 -112.5625 105.0625 C-75.1355167 98.45773824 -50.29628989 80.81647486 -28.5625 50.0625 C-25.68454506 45.85007434 -23.07824118 41.50013787 -20.5625 37.0625 C-19.92054688 35.94101562 -19.27859375 34.81953125 -18.6171875 33.6640625 C-13.07596802 23.7459053 -8.69824067 13.36117242 -4.37524414 2.86572266 C-3.1514299 0.15046524 -3.10831229 0.07581249 0 0 Z " fill="#59A8E9" transform="translate(748.5625,293.9375)"/>
  <path d="M0 0 C0 8.25 0 16.5 0 25 C-2.866875 25.4125 -5.73375 25.825 -8.6875 26.25 C-36.93478405 30.6216608 -59.98703683 45.36017783 -77.09765625 68.17871094 C-82.99030414 76.40662846 -88.04036978 85.18963406 -93 94 C-93.34772461 94.6089209 -93.69544922 95.2178418 -94.05371094 95.84521484 C-100.65710085 107.45751758 -105.80902468 119.70668097 -111 132 C-112.65 131.67 -114.3 131.34 -116 131 C-113.86414178 122.80380431 -110.64262125 115.2860912 -107.0625 107.625 C-106.77821136 107.01460876 -106.49392273 106.40421753 -106.20101929 105.77532959 C-98.42012986 89.13587572 -89.07678191 73.64932762 -78 59 C-77.34773438 58.13503906 -76.69546875 57.27007812 -76.0234375 56.37890625 C-60.73835269 36.72216139 -27.1098573 0 0 0 Z " fill="#54A7EC" transform="translate(139,295)"/>
  <path d="M0 0 C0 3.57575896 -1.08840607 5.05295935 -3 8 C-0.03 8 2.94 8 6 8 C3.62550445 9.91128112 1.24928972 11.81180633 -1.18359375 13.6484375 C-19.59938133 27.75550528 -31.74518929 45.00677539 -43 65 C-43.34772461 65.6089209 -43.69544922 66.2178418 -44.05371094 66.84521484 C-50.65710085 78.45751758 -55.80902468 90.70668097 -61 103 C-62.65 102.67 -64.3 102.34 -66 102 C-63.86414178 93.80380431 -60.64262125 86.2860912 -57.0625 78.625 C-56.77821136 78.01460876 -56.49392273 77.40421753 -56.20101929 76.77532959 C-48.42012986 60.13587572 -39.07678191 44.64932762 -28 30 C-27.34773438 29.13503906 -26.69546875 28.27007812 -26.0234375 27.37890625 C-18.32020606 17.47248721 -9.77304014 7.90466482 0 0 Z " fill="#62A7E1" transform="translate(89,324)"/>
  <path d="M0 0 C0.66 0 1.32 0 2 0 C2.00135653 0.63077633 2.00271306 1.26155265 2.00411069 1.91144341 C2.08472633 39.28005199 2.17566675 76.64862215 2.28005161 114.01717217 C2.29257078 118.50208918 2.30500351 122.98700643 2.31738281 127.47192383 C2.31984881 128.36480609 2.3223148 129.25768836 2.32485552 130.17762766 C2.36460053 144.64309257 2.39734016 159.10856531 2.42749982 173.57405301 C2.45859224 188.41229355 2.49719215 203.2505008 2.54279006 218.08870393 C2.57069849 227.2477852 2.59272131 236.40684207 2.60726251 245.56595448 C2.61778865 251.84308413 2.63559411 258.12016658 2.65916704 264.39726069 C2.67255963 268.02109534 2.68270122 271.64486371 2.68421364 275.26872444 C2.68593602 279.19505794 2.70296551 283.12123915 2.7215271 287.04753113 C2.71959237 288.19636046 2.71765763 289.34518979 2.71566427 290.52883214 C2.72312976 291.58032266 2.73059525 292.63181318 2.73828697 293.71516705 C2.74170446 295.07475569 2.74170446 295.07475569 2.74519098 296.46181077 C3.02730852 299.27202408 3.83849797 301.43798439 5 304 C4.01 304 3.02 304 2 304 C-0.59068719 298.08770957 -0.27278884 292.29314541 -0.24050903 285.96524048 C-0.24307231 284.13220275 -0.24307231 284.13220275 -0.24568737 282.26213396 C-0.24840929 278.87793439 -0.24216932 275.49396681 -0.23213124 272.10979533 C-0.22348648 268.45751503 -0.22641763 264.80524176 -0.22793579 261.1529541 C-0.22898399 254.82769706 -0.22271416 248.50248131 -0.21146011 242.17723465 C-0.1951993 233.0320195 -0.18999651 223.8868243 -0.18748413 214.74159627 C-0.18310794 199.90372864 -0.1698009 185.06588302 -0.15087891 170.22802734 C-0.13251814 155.81526805 -0.1183626 141.40251473 -0.10986328 126.98974609 C-0.10933783 126.10119775 -0.10881239 125.21264941 -0.10827102 124.29717536 C-0.10566092 119.83954597 -0.10313351 115.38191654 -0.10064721 110.92428708 C-0.07991708 73.94950919 -0.04469362 36.97475631 0 0 Z " fill="#28698D" transform="translate(139,320)"/>
  <path d="M0 0 C0 65.34 0 130.68 0 198 C-2.48029481 195.51970519 -2.24696307 194.07590799 -2.28433573 190.69042623 C-2.28143363 189.57273522 -2.28143363 189.57273522 -2.2784729 188.4324646 C-2.2842653 187.64263014 -2.2900577 186.85279569 -2.29602563 186.03902686 C-2.31310456 183.37802798 -2.31590887 180.7172017 -2.31884766 178.05615234 C-2.3281404 176.15439932 -2.33830808 174.2526504 -2.34928894 172.35090637 C-2.37667678 167.17557875 -2.39176428 162.00027847 -2.40471697 156.82489729 C-2.42030921 151.4209627 -2.44711179 146.01708429 -2.4727478 140.6131897 C-2.51960499 130.37452121 -2.55631544 120.13584224 -2.58942068 109.89712107 C-2.62759313 98.24309007 -2.67701599 86.58911538 -2.72740483 74.93513179 C-2.83082787 50.95679623 -2.92005444 26.97842451 -3 3 C-4.09290108 3.08879236 -4.09290108 3.08879236 -5.20788097 3.17937851 C-8.5702165 3.45066528 -11.93292362 3.71705622 -15.2956543 3.98339844 C-16.44130608 4.07656342 -17.58695786 4.16972839 -18.76732635 4.26571655 C-28.58451917 5.03761955 -38.34718741 5.30859785 -48.19165039 5.26074219 C-50.86040973 5.24980363 -53.52852337 5.26086164 -56.19726562 5.2734375 C-75.80829731 5.29055815 -75.80829731 5.29055815 -84 3 C-84.33 2.34 -84.66 1.68 -85 1 C-82.9374649 1.14533606 -80.87497439 1.29130498 -78.8125 1.4375 C-76.86730469 1.57285156 -76.86730469 1.57285156 -74.8828125 1.7109375 C-72.60493091 1.88051822 -70.32795082 2.06595708 -68.0546875 2.2890625 C-47.55503658 4.24407008 -26.9433353 3.06362306 -6.56640625 0.43359375 C-3 0 -3 0 0 0 Z " fill="#E1F8FE" transform="translate(597,436)"/>
  <path d="M0 0 C1.65 0 3.3 0 5 0 C3.03216184 11.33060497 -2.66373975 21.78432181 -7.91308594 31.89990234 C-9.00886555 34.01712972 -10.08687752 36.14279384 -11.1640625 38.26953125 C-18.10851959 51.83907138 -26.16580963 64.32533266 -36 76 C-38 73 -38 73 -38 71 C-37.34 71 -36.68 71 -36 71 C-36 70.34 -36 69.68 -36 69 C-34.68 69 -33.36 69 -32 69 C-30.5393715 66.35261084 -30 65.10551666 -30 62 C-33.87241564 63.46884731 -34.97198676 65.49706804 -37 69 C-37.66 69 -38.32 69 -39 69 C-39 69.66 -39 70.32 -39 71 C-41 72.625 -41 72.625 -43 74 C-43.66 73.67 -44.32 73.34 -45 73 C-44.34515625 72.33097656 -43.6903125 71.66195312 -43.015625 70.97265625 C-24.99222845 52.17057411 -13.36628832 29.85332744 -2.98632812 6.18798828 C-2.04313437 4.09568569 -1.04139158 2.04492497 0 0 Z " fill="#66A7DB" transform="translate(746,294)"/>
  <path d="M0 0 C0.33 0 0.66 0 1 0 C1.16355161 25.54733145 1.28697603 51.09458438 1.3626852 76.64233398 C1.39877336 88.50473536 1.44797098 100.36681137 1.52807617 112.22900391 C1.59786602 122.56860478 1.64301231 132.90797001 1.65861946 143.24779987 C1.66774211 148.72235091 1.68916787 154.19622785 1.7401104 159.67056274 C1.78768947 164.8253105 1.80226754 169.9791077 1.79175377 175.13405418 C1.79367662 177.02388872 1.80756262 178.91375564 1.83443832 180.80340004 C2.05148526 196.85388343 2.05148526 196.85388343 -2.17466736 201.99951172 C-12.3683011 211.54216154 -22.24615241 208 -37 208 C-37 143.32 -37 78.64 -37 12 C-36.67 12 -36.34 12 -36 12 C-35.67 76.02 -35.34 140.04 -35 206 C-19.88326189 206.86272869 -19.88326189 206.86272869 -6.125 202.1875 C-1.50023796 197.42671555 -0.55884314 193.50928541 -0.60127258 186.99577332 C-0.59462576 186.19520848 -0.58797893 185.39464365 -0.58113068 184.56981927 C-0.56249553 181.89041066 -0.5651063 179.2114484 -0.56762695 176.53198242 C-0.55861011 174.61008066 -0.54828308 172.68818466 -0.53674316 170.76629639 C-0.50913799 165.54980155 -0.49988384 160.33341572 -0.49388909 155.11685729 C-0.48451461 149.66488169 -0.45831196 144.21298781 -0.43388367 138.76106262 C-0.39018953 128.43749085 -0.36166044 118.11393491 -0.33856028 107.79029876 C-0.31152426 96.03703419 -0.26761175 84.28385172 -0.22227156 72.53064573 C-0.12938352 48.35380831 -0.0577218 24.17694514 0 0 Z " fill="#2E678A" transform="translate(634,426)"/>
  <path d="M0 0 C0 0.66 0 1.32 0 2 C-0.66 2 -1.32 2 -2 2 C-1.99907821 2.98398584 -1.99815641 3.96797169 -1.99720669 4.98177528 C-1.97501284 28.91791499 -1.95857693 52.85405337 -1.94818783 76.79020119 C-1.94303028 88.36550894 -1.93599784 99.94080989 -1.92456055 111.51611328 C-1.91459723 121.60445611 -1.90814263 131.69279402 -1.90591151 141.78114164 C-1.90460721 147.12343478 -1.90153904 152.46571384 -1.89426994 157.80800247 C-1.88748378 162.83609915 -1.88538835 167.86417594 -1.88689232 172.89227676 C-1.88661716 174.73774829 -1.88462744 176.58322048 -1.88079453 178.42868805 C-1.87581676 180.94895325 -1.87701682 183.46914345 -1.87974548 185.9894104 C-1.87683264 186.71899542 -1.8739198 187.44858045 -1.87091869 188.20027411 C-1.90196494 198.81527796 -1.90196494 198.81527796 -5.375 202.5625 C-6.24125 203.366875 -7.1075 204.17125 -8 205 C-8.680625 206.3921875 -8.680625 206.3921875 -9.375 207.8125 C-9.91125 208.534375 -10.4475 209.25625 -11 210 C-14.6875 210.3125 -14.6875 210.3125 -18 210 C-17.195625 209.4121875 -17.195625 209.4121875 -16.375 208.8125 C-10.61211954 204.48294091 -10.61211954 204.48294091 -6 199 C-5.79887026 196.33988387 -5.71476791 193.78335921 -5.7215271 191.12239075 C-5.7157347 190.31128411 -5.7099423 189.50017746 -5.70397437 188.66449183 C-5.68692368 185.93750219 -5.68409352 183.21068128 -5.68115234 180.48364258 C-5.67185766 178.53248172 -5.66168969 176.58132484 -5.65071106 174.63017273 C-5.62334512 169.32474294 -5.60824214 164.0193398 -5.59528303 158.71385789 C-5.57968129 153.17246321 -5.55288169 147.63112319 -5.5272522 142.08976746 C-5.48041195 131.59259516 -5.44369325 121.09541264 -5.41057932 110.59818906 C-5.37239496 98.64909907 -5.32297518 86.7000639 -5.27259517 74.75102007 C-5.1691973 50.16738732 -5.07996248 25.58371936 -5 1 C-2 0 -2 0 0 0 Z " fill="#BCDAE6" transform="translate(640,424)"/>
  <path d="M0 0 C7.74106678 0.14990047 15.43740724 1.93287743 23 3.4375 C24.11117187 3.65470703 25.22234375 3.87191406 26.3671875 4.09570312 C32.91517971 5.37833925 39.45810739 6.68663753 46 8 C46 8.66 46 9.32 46 10 C47.32 10.33 48.64 10.66 50 11 C46.65213432 12.67393284 43.68763147 10.89421875 40.1875 9.875 C26.96647815 6.47741897 13.4521253 4.31933195 0 2 C0 104.63 0 207.26 0 313 C-0.33 313 -0.66 313 -1 313 C-1.02286481 273.27006713 -1.04049743 233.54013512 -1.05106533 193.810197 C-1.05231611 189.12484812 -1.05361042 184.43949925 -1.05493164 179.75415039 C-1.05519395 178.82134089 -1.05545626 177.88853139 -1.05572652 176.92745494 C-1.06008355 161.80292312 -1.06797128 146.67839508 -1.0771528 131.5538655 C-1.08648842 116.04670074 -1.09205542 100.53953796 -1.09408849 85.03237051 C-1.09546391 75.45562199 -1.09981551 65.87888415 -1.10791647 56.30213892 C-1.1131828 49.74426692 -1.11480455 43.18640048 -1.11350138 36.62852652 C-1.11285782 32.83912167 -1.11387749 29.04973557 -1.11920547 25.26033401 C-1.12492627 21.16187057 -1.12300122 17.06344757 -1.12025452 12.96498108 C-1.12316736 11.75391805 -1.1260802 10.54285503 -1.12908131 9.29509312 C-1.12709026 8.20628265 -1.12509921 7.11747218 -1.12304783 5.99566746 C-1.12342755 5.04826523 -1.12380727 4.10086301 -1.1241985 3.12475163 C-1 1 -1 1 0 0 Z " fill="#86B3CB" transform="translate(178,321)"/>
  <path d="M0 0 C0.66 0 1.32 0 2 0 C2.62726108 1.54074808 3.2516901 3.08264923 3.875 4.625 C4.22304688 5.48351562 4.57109375 6.34203125 4.9296875 7.2265625 C7.50087371 13.8891253 8.88299445 20.41607706 10.12109375 27.44140625 C10.78955629 30.94714155 10.78955629 30.94714155 12.52734375 33.4296875 C14.59874235 37.0450198 14.77126507 40.45986847 15.125 44.5625 C15.19847656 45.29791016 15.27195312 46.03332031 15.34765625 46.79101562 C15.49704503 48.31766415 15.63654967 49.8453098 15.76652527 51.37373352 C15.9118742 53.00870717 16.07270526 54.64247197 16.25727844 56.27348328 C17.40341323 67.38110718 17.12445891 78.5516228 17.09765625 89.703125 C17.09578834 91.99525929 17.0943662 94.28739398 17.09336853 96.57952881 C17.08957274 102.57665126 17.07976791 108.57374903 17.06866455 114.57086182 C17.0583869 120.7047899 17.05385736 126.83872202 17.04882812 132.97265625 C17.03814268 144.98178161 17.02110203 156.99088874 17 169 C16.34 169.33 15.68 169.66 15 170 C14.99191315 168.78351776 14.98382629 167.56703552 14.97549438 166.31369019 C14.89743401 154.75356704 14.80955339 143.19355301 14.71247292 131.63357353 C14.66288777 125.6929131 14.61656008 119.7522673 14.578125 113.81152344 C14.54078782 108.06015861 14.49430915 102.30892889 14.44193649 96.55768204 C14.42364593 94.38209571 14.40844864 92.20648071 14.39665604 90.03084946 C14.29429808 71.77054933 13.97387378 53.16609333 9.75 35.3125 C9.53891602 34.37680176 9.32783203 33.44110352 9.11035156 32.47705078 C7.24190351 24.45953748 4.84873197 16.6381047 2.234375 8.8359375 C1.26206221 5.91474703 0.50535037 3.04413435 0 0 Z " fill="#2A6B90" transform="translate(582,231)"/>
  <path d="M0 0 C10.37879818 0.74134273 20.46234738 3.55567944 30.375 6.625 C36.49417456 8.51731617 42.71745947 9.72081095 49.0625 10.5625 C52 11 52 11 53 12 C54.48437809 12.22623521 55.97777425 12.39412965 57.47265625 12.53515625 C58.37177734 12.62216797 59.27089844 12.70917969 60.19726562 12.79882812 C61.14279297 12.88583984 62.08832031 12.97285156 63.0625 13.0625 C64.01189453 13.15337891 64.96128906 13.24425781 65.93945312 13.33789062 C68.29262135 13.56256498 70.64610619 13.78308182 73 14 C73 13.34 73 12.68 73 12 C75.64 12 78.28 12 81 12 C81 12.66 81 13.32 81 14 C88.93871073 16.59223208 98.11249927 17.22904056 106.3203125 15.515625 C111.45140481 14.52830111 116.74537273 14.63306182 121.95898438 14.48242188 C122.83232422 14.44826172 123.70566406 14.41410156 124.60546875 14.37890625 C125.79885864 14.34132202 125.79885864 14.34132202 127.01635742 14.30297852 C129.22951452 14.16530951 129.22951452 14.16530951 131 12 C133.6015625 11.8046875 133.6015625 11.8046875 136.625 11.875 C137.62789062 11.89304687 138.63078125 11.91109375 139.6640625 11.9296875 C140.43492187 11.95289063 141.20578125 11.97609375 142 12 C142 12.66 142 13.32 142 14 C95.05699164 24.55656169 44.97472216 15.81055614 0 1 C0 0.67 0 0.34 0 0 Z " fill="#6EABDE" transform="translate(455,422)"/>
  <path d="M0 0 C1.1744165 0.3412793 2.34883301 0.68255859 3.55883789 1.03417969 C4.64156982 1.35805664 5.72430176 1.68193359 6.83984375 2.015625 C7.80140381 2.30211914 8.76296387 2.58861328 9.75366211 2.88378906 C12.0625 3.75 12.0625 3.75 14.0625 5.75 C4.18430869 3.98354697 -5.66154463 1.61674725 -15.1328125 -1.71484375 C-20.73119727 -3.60842384 -26.46127059 -4.72506234 -32.25 -5.875 C-34.37121357 -6.30409558 -36.49231229 -6.73375947 -38.61328125 -7.1640625 C-39.54052002 -7.3492041 -40.46775879 -7.5343457 -41.4230957 -7.72509766 C-42.97084321 -8.04820253 -44.51324103 -8.40047777 -46.04296875 -8.80029297 C-49.83713371 -9.70091821 -53.82547658 -9.65909797 -57.71289062 -9.85546875 C-62.83509026 -10.14759026 -62.83509026 -10.14759026 -63.9375 -11.25 C-66.94909946 -11.35151674 -69.93721835 -11.38965158 -72.94921875 -11.3828125 C-74.32893608 -11.38424759 -74.32893608 -11.38424759 -75.73652649 -11.38571167 C-77.69617785 -11.38639445 -79.65583145 -11.3845334 -81.61547852 -11.38037109 C-84.5672744 -11.37510302 -87.51891252 -11.38027109 -90.47070312 -11.38671875 C-100.67467025 -11.38996068 -110.77078819 -11.20663626 -120.9375 -10.25 C-88.66925833 -27.33983074 -31.8518877 -9.28458977 0 0 Z " fill="#70AAD8" transform="translate(299.9375,295.25)"/>
  <path d="M0 0 C0 3 0 3 -1.875 5.1875 C-4 7 -4 7 -6 7 C-6 7.99 -6 8.98 -6 10 C-7.609375 11.61328125 -7.609375 11.61328125 -9.75 13.3125 C-12.41114633 15.52228582 -14.54763504 17.49418697 -16.375 20.4375 C-16.91125 21.283125 -17.4475 22.12875 -18 23 C-18.66 23 -19.32 23 -20 23 C-20.28875 23.928125 -20.5775 24.85625 -20.875 25.8125 C-22 29 -22 29 -24 32 C-24.99 32 -25.98 32 -27 32 C-27.33 34.31 -27.66 36.62 -28 39 C-28.99 39 -29.98 39 -31 39 C-34.01732525 41.48485609 -35.21791603 43.2199275 -36 47 C-36.99 47.495 -36.99 47.495 -38 48 C-38.268125 48.9075 -38.53625 49.815 -38.8125 50.75 C-40.21171895 54.57944133 -42.13740833 56.13740833 -45 59 C-48.73182996 65.08393405 -51.36131957 72.07772378 -53 79 C-53.66 79 -54.32 79 -55 79 C-55.33 79.99 -55.66 80.98 -56 82 C-56.66 82 -57.32 82 -58 82 C-58.33 83.32 -58.66 84.64 -59 86 C-60 83 -60 83 -59.37011719 81.10913086 C-59.01594727 80.40151611 -58.66177734 79.69390137 -58.296875 78.96484375 C-57.89952148 78.1648999 -57.50216797 77.36495605 -57.09277344 76.54077148 C-56.6496582 75.68169189 -56.20654297 74.8226123 -55.75 73.9375 C-55.29399414 73.04426025 -54.83798828 72.15102051 -54.36816406 71.23071289 C-43.16315121 49.5989193 -29.48413782 30.0487916 -12.48657227 12.58398438 C-11.02299758 11.02450457 -9.65757419 9.41758908 -8.3046875 7.76171875 C-5.74091229 4.68953387 -3.1234788 2.46972742 0 0 Z " fill="#327195" transform="translate(219,126)"/>
  <path d="M0 0 C0.66 0 1.32 0 2 0 C0.28382467 4.92297153 -2.40222386 9.17337758 -5.0625 13.625 C-18.57513858 36.73083474 -27.98469687 61.33206765 -32.6875 87.75 C-32.81705078 88.45898438 -32.94660156 89.16796875 -33.08007812 89.8984375 C-33.39019331 91.59832813 -33.69564551 93.29906851 -34 95 C-34.33 95 -34.66 95 -35 95 C-35.02688151 93.35425434 -35.04634123 91.70838587 -35.0625 90.0625 C-35.07410156 89.14597656 -35.08570313 88.22945313 -35.09765625 87.28515625 C-35 85 -35 85 -34 84 C-33.54700219 81.90335471 -33.13969338 79.79682869 -32.75 77.6875 C-31.50674221 71.19947386 -30.03341629 64.78510706 -28.4375 58.375 C-28.22770508 57.52252686 -28.01791016 56.67005371 -27.80175781 55.79174805 C-26.77925653 51.72960728 -25.70201607 47.84326209 -24 44 C-23.34 44 -22.68 44 -22 44 C-21.93683594 43.32195312 -21.87367188 42.64390625 -21.80859375 41.9453125 C-20.90608842 35.08627199 -18.94477707 30.95466307 -14.75390625 25.50390625 C-12.05070097 21.64476463 -10.51897323 17.43426969 -9 13 C-8.34 13 -7.68 13 -7 13 C-6.87625 12.195625 -6.7525 11.39125 -6.625 10.5625 C-6.315625 9.2940625 -6.315625 9.2940625 -6 8 C-5.34 7.67 -4.68 7.34 -4 7 C-3.67 6.01 -3.34 5.02 -3 4 C-2.34 4 -1.68 4 -1 4 C-0.67 2.68 -0.34 1.36 0 0 Z " fill="#327092" transform="translate(213,188)"/>
  <path d="M0 0 C0.99 0.495 0.99 0.495 2 1 C2.81640625 3.58984375 2.81640625 3.58984375 3.5625 6.9375 C3.81128906 8.01902344 4.06007813 9.10054688 4.31640625 10.21484375 C5.81253793 18.49913861 6.15613387 26.73764458 6.20532227 35.14111328 C6.21522186 36.20571274 6.22512146 37.27031219 6.23532104 38.36717224 C6.26665986 41.85153047 6.29158315 45.33590229 6.31640625 48.8203125 C6.33699969 51.24983047 6.35799675 53.67934505 6.37937927 56.1088562 C6.43435327 62.47751099 6.48387054 68.84619677 6.53222656 75.21490479 C6.58262265 81.72402681 6.63821385 88.23310428 6.69335938 94.7421875 C6.80063881 107.49475328 6.90232649 120.24735721 7 133 C8.98 133.33 10.96 133.66 13 134 C13 134.33 13 134.66 13 135 C10.36 135 7.72 135 5 135 C4.99413376 133.83664627 4.98826752 132.67329254 4.98222351 131.47468567 C4.92437011 120.3729036 4.85129968 109.27130579 4.76428509 98.16971302 C4.72004076 92.46577751 4.68069156 86.76190597 4.65356445 81.05786133 C4.53346554 56.5388563 4.35097955 32.32439434 1 8 C0.79919352 6.42064248 0.60058031 4.84100317 0.4050293 3.26098633 C0.27136963 2.18486084 0.13770996 1.10873535 0 0 Z " fill="#E9FEFE" transform="translate(631,264)"/>
  <path d="M0 0 C1.65 0 3.3 0 5 0 C3.45609754 9.14465305 -0.68625626 17.85181738 -5 26 C-5.5534764 23.92446352 -6 22.15634036 -6 20 C-6.99 20.33 -7.98 20.66 -9 21 C-7.50640515 16.15713185 -5.54966433 11.68649104 -3.375 7.125 C-2.88773438 6.09246094 -2.88773438 6.09246094 -2.390625 5.0390625 C-1.59676528 3.35794781 -0.79880442 1.67877079 0 0 Z " fill="#68A9DD" transform="translate(746,294)"/>
  <path d="M0 0 C4.9229991 0.5587453 8.86963577 2.17974671 13.25 4.375 C17.49022859 6.43775805 21.5417369 8.31285972 26.125 9.5 C31.48095327 10.93240611 36.01025319 13.60520014 40.828125 16.296875 C44.35643866 18.19138824 47.91312068 19.68100751 51.65234375 21.09765625 C54.82868821 22.31851411 57.91373171 23.72023556 61.015625 25.1171875 C63.31954334 26.14215904 65.64851971 27.08974957 68 28 C68 28.66 68 29.32 68 30 C60.72028596 27.73030814 53.87915322 24.831706 46.9375 21.6875 C44.5655263 20.62275701 42.19310975 19.55900018 39.8203125 18.49609375 C39.20104385 18.21827057 38.58177521 17.94044739 37.94374084 17.65420532 C30.08919112 14.13489144 22.20022659 10.69413042 14.3125 7.25 C12.87816483 6.62331162 11.44383844 5.99660312 10.00952148 5.36987305 C6.67337964 3.91241118 3.33682259 2.45590275 0 1 C0 0.67 0 0.34 0 0 Z " fill="#6CA9D9" transform="translate(328,370)"/>
  <path d="M0 0 C4.73855959 0.60367578 8.87117335 1.97422413 13.25 3.80859375 C13.93756378 4.09121567 14.62512756 4.37383759 15.33352661 4.6650238 C17.55856465 5.58239258 19.779396 6.50945518 22 7.4375 C23.52844166 8.07122619 25.05692496 8.70485197 26.58544922 9.33837891 C38.51102488 14.29981332 50.30366117 19.51813061 62 25 C58.92605694 25.85709523 57.04352525 26.15444061 54 25 C53.505 24.01 53.505 24.01 53 23 C50.03047964 21.89036077 47.01566284 21.01080234 43.98046875 20.09765625 C41.11009384 19.0405457 39.39110164 17.8452542 37 16 C35.31622765 15.29260043 33.60430952 14.64986023 31.875 14.0625 C28.15100093 12.76331524 24.46843392 11.41795547 20.8125 9.9375 C12.57031003 6.57223646 12.57031003 6.57223646 4.0625 4 C3.051875 3.67 2.04125 3.34 1 3 C0.67 2.01 0.34 1.02 0 0 Z " fill="#69A7D9" transform="translate(322,304)"/>
  <path d="M0 0 C0 0.33 0 0.66 0 1 C-0.57218262 1.06993164 -1.14436523 1.13986328 -1.73388672 1.21191406 C-20.97257356 3.60090652 -39.08862757 7.4903735 -57.58984375 13.25439453 C-61.71795359 14.53146579 -65.85924879 15.7646468 -70 17 C-70 16.34 -70 15.68 -70 15 C-68.10546779 14.35035977 -66.20931351 13.70544885 -64.3125 13.0625 C-63.25675781 12.70285156 -62.20101563 12.34320313 -61.11328125 11.97265625 C-58.40949417 11.12793482 -55.78613158 10.49106215 -53 10 C-53 9.34 -53 8.68 -53 8 C-52.16984375 7.87496094 -51.3396875 7.74992187 -50.484375 7.62109375 C-46.68767729 6.94432813 -42.98032327 6.02820009 -39.25 5.0625 C-26.1204938 1.73783539 -13.59777905 -0.2654664 0 0 Z " fill="#306F92" transform="translate(374,99)"/>
  <path d="M0 0 C2.64 0.33 5.28 0.66 8 1 C8 1.66 8 2.32 8 3 C8.94359375 3.14695312 8.94359375 3.14695312 9.90625 3.296875 C15.93330848 4.34979486 20.65472772 6.0985996 26 9 C30.3744294 11.03637231 34.20276496 12.41497134 39 13 C39 13.66 39 14.32 39 15 C39.9075 15.0825 40.815 15.165 41.75 15.25 C47.37374653 16.0268887 52.66921705 18.11803229 58 20 C58 20.66 58 21.32 58 22 C53.84736961 21.40209206 50.08546394 20.46564615 46.1328125 19.06640625 C45.01036133 18.66921387 43.88791016 18.27202148 42.73144531 17.86279297 C41.54131836 17.43369629 40.35119141 17.00459961 39.125 16.5625 C37.8987793 16.12309082 36.67255859 15.68368164 35.40917969 15.23095703 C23.43383139 10.90446196 11.68908004 6.04622972 0 1 C0 0.67 0 0.34 0 0 Z " fill="#6DA9D9" transform="translate(397,400)"/>
  <path d="M0 0 C0.33 0 0.66 0 1 0 C1.33 1.98 1.66 3.96 2 6 C3.49988961 6.0276619 4.99993869 6.0466861 6.5 6.0625 C7.3353125 6.07410156 8.170625 6.08570313 9.03125 6.09765625 C12.11898098 6.0470766 12.11898098 6.0470766 15.625 5.50390625 C20.90999866 4.80210933 26.17672842 4.85428688 31.5 4.875 C32.99080078 4.86919922 32.99080078 4.86919922 34.51171875 4.86328125 C40.102431 4.8706666 45.47037023 5.17055553 51 6 C51 6.33 51 6.66 51 7 C50.17089111 7.01981934 49.34178223 7.03963867 48.48754883 7.06005859 C31.91291224 7.47496894 15.48528478 8.10704088 -1 10 C-0.67 6.7 -0.34 3.4 0 0 Z " fill="#ECFEFF" transform="translate(180,274)"/>
  <path d="M0 0 C6.02066638 -0.19908703 11.32850087 0.4619344 17.1875 1.8125 C18.35829102 2.0609668 18.35829102 2.0609668 19.55273438 2.31445312 C23.91184257 3.29423571 27.23169688 4.50626999 31 7 C33.69254991 7.70670728 33.69254991 7.70670728 36 8 C36 8.66 36 9.32 36 10 C36.825 10.0825 37.65 10.165 38.5 10.25 C42.76753921 11.16447269 46.19236894 12.92223178 50 15 C50 15.66 50 16.32 50 17 C46.04440249 15.74084241 42.22340102 14.27979555 38.39013672 12.68969727 C25.93763877 7.58567888 13.02697963 4.29534449 0 1 C0 0.67 0 0.34 0 0 Z " fill="#377495" transform="translate(428,103)"/>
  <path d="M0 0 C7.10839976 0.78594101 14.0944857 2.07680067 21.125 3.375 C33.37808595 5.60643135 45.64376356 7.44916624 58 9 C58 9.33 58 9.66 58 10 C49.19010011 10.34624061 41.0704702 9.90250146 32.42578125 8.20556641 C27.48003601 7.23601116 22.57358377 6.58365747 17.5625 6.0625 C11.17275457 5.32009661 5.76052479 3.85256756 0 1 C0 0.67 0 0.34 0 0 Z " fill="#65A6D9" transform="translate(539,391)"/>
  <path d="M0 0 C-2.20831882 2.20831882 -3.49657876 2.6114458 -6.4375 3.5 C-9.46202775 4.41682554 -11.31457196 5.20971464 -14 7 C-14.33 7.66 -14.66 8.32 -15 9 C-16.134375 8.979375 -17.26875 8.95875 -18.4375 8.9375 C-23.00782755 8.9293241 -27.47238262 9.41308664 -32 10 C-32 10.66 -32 11.32 -32 12 C-32.99 12 -33.98 12 -35 12 C-35 11.34 -35 10.68 -35 10 C-30.98055777 8.53781274 -26.95920781 7.08094308 -22.9375 5.625 C-21.80376953 5.2125 -20.67003906 4.8 -19.50195312 4.375 C-3.85014205 -1.28338068 -3.85014205 -1.28338068 0 0 Z " fill="#2E7297" transform="translate(327,69)"/>
  <path d="M0 0 C6.20975862 2.37186557 12.41040066 4.76538577 18.59765625 7.1953125 C19.58950928 7.58468994 20.5813623 7.97406738 21.60327148 8.37524414 C23.57330332 9.14928186 25.5428895 9.92445507 27.51196289 10.70092773 C33.97168066 13.23849548 40.46661779 15.65869912 47 18 C47 18.33 47 18.66 47 19 C40.61463415 19.37560976 40.61463415 19.37560976 37.75 17.625 C34.38245589 15.63508757 30.94870521 14.73750453 27.1875 13.8125 C26.49462891 13.63525391 25.80175781 13.45800781 25.08789062 13.27539062 C23.39374056 12.84309026 21.69710732 12.42054106 20 12 C20 11.34 20 10.68 20 10 C19.01 10 18.02 10 17 10 C17 9.34 17 8.68 17 8 C15.948125 7.896875 14.89625 7.79375 13.8125 7.6875 C10.04352512 7.00784879 8.142128 6.06718947 5 4 C3.34630643 3.30177383 1.68272986 2.62501395 0 2 C0 1.34 0 0.68 0 0 Z " fill="#6AA7D9" transform="translate(452,360)"/>
  <path d="M0 0 C1.32 0.66 2.64 1.32 4 2 C3.34515625 2.44988281 2.6903125 2.89976562 2.015625 3.36328125 C-8.63996829 10.87336748 -17.90956645 19.66893732 -27 29 C-27.33 28.01 -27.66 27.02 -28 26 C-26.75 23.8125 -26.75 23.8125 -25 22 C-24.01 22 -23.02 22 -22 22 C-21.79375 21.2575 -21.5875 20.515 -21.375 19.75 C-19.0572768 15.11455361 -14.57806323 13.11295226 -10 11 C-10 10.01 -10 9.02 -10 8 C-8.33720673 6.9935725 -6.67016516 5.99414593 -5 5 C-3.67206394 2.93299345 -3.67206394 2.93299345 -3 1 C-2.01 1.33 -1.02 1.66 0 2 C0 1.34 0 0.68 0 0 Z " fill="#337091" transform="translate(262,137)"/>
  <path d="M0 0 C7.78818964 0.59883794 15.34434465 1.91436207 23 3.4375 C24.11117187 3.65470703 25.22234375 3.87191406 26.3671875 4.09570312 C32.91517971 5.37833925 39.45810739 6.68663753 46 8 C46 8.66 46 9.32 46 10 C47.32 10.33 48.64 10.66 50 11 C46.70708921 12.6464554 43.44784441 10.85680905 40.0625 9.875 C30.420427 7.17933595 20.68187903 5.36704639 10.81469727 3.70068359 C9.69893311 3.50684082 8.58316895 3.31299805 7.43359375 3.11328125 C5.93397095 2.86251831 5.93397095 2.86251831 4.40405273 2.60668945 C2 2 2 2 0 0 Z " fill="#6FABD9" transform="translate(178,321)"/>
  <path d="M0 0 C-0.33 1.32 -0.66 2.64 -1 4 C-2.32 4.33 -3.64 4.66 -5 5 C-5.33 6.98 -5.66 8.96 -6 11 C-8.97 10.505 -8.97 10.505 -12 10 C-12.2475 10.598125 -12.495 11.19625 -12.75 11.8125 C-14.18072525 14.31626919 -15.5691582 15.48072388 -18 17 C-18.66 17 -19.32 17 -20 17 C-20.33 17.99 -20.66 18.98 -21 20 C-22.32 19.67 -23.64 19.34 -25 19 C-4.84968685 0 -4.84968685 0 0 0 Z " fill="#2D7096" transform="translate(245,106)"/>
  <path d="M0 0 C6.87472573 6.66640071 12.70849813 13.82072515 18.25 21.625 C18.76957275 22.35364258 19.28914551 23.08228516 19.82446289 23.83300781 C22.57883504 27.75951982 24.9858098 31.62672402 27 36 C26.34 36 25.68 36 25 36 C25 35.34 25 34.68 25 34 C24.34 34 23.68 34 23 34 C22.566875 33.05125 22.13375 32.1025 21.6875 31.125 C20.20697799 27.79958063 20.20697799 27.79958063 17 26 C16.31246699 24.34183216 15.64438717 22.67540664 15 21 C14.34 20.67 13.68 20.34 13 20 C11.32307821 17.48461732 10.0596985 15.17113569 9.0625 12.3125 C8.2335041 9.8722077 8.2335041 9.8722077 6.125 9.0625 C2.95004477 7.47502239 1.75429215 5.00735796 0 2 C0 1.34 0 0.68 0 0 Z " fill="#357293" transform="translate(572,144)"/>
  <path d="M0 0 C0.99773438 0.02320313 1.99546875 0.04640625 3.0234375 0.0703125 C4.52777344 0.09738281 4.52777344 0.09738281 6.0625 0.125 C6.83335937 0.14820313 7.60421875 0.17140625 8.3984375 0.1953125 C8.3984375 0.8553125 8.3984375 1.5153125 8.3984375 2.1953125 C6.73232821 2.51077069 5.065513 2.82250089 3.3984375 3.1328125 C2.00625 3.39384766 2.00625 3.39384766 0.5859375 3.66015625 C-6.56853115 4.86133542 -13.35830192 5.33013384 -20.6015625 5.2578125 C-21.47167969 5.25330078 -22.34179688 5.24878906 -23.23828125 5.24414062 C-25.35940543 5.2324861 -27.4804936 5.21455607 -29.6015625 5.1953125 C-29.6015625 4.8653125 -29.6015625 4.5353125 -29.6015625 4.1953125 C-23.739224 2.70822034 -17.65477544 2.85144832 -11.64257812 2.67773438 C-10.76923828 2.64357422 -9.89589844 2.60941406 -8.99609375 2.57421875 C-7.80270386 2.53663452 -7.80270386 2.53663452 -6.58520508 2.49829102 C-3.59378438 2.04138602 -3.1992166 0.24018143 0 0 Z " fill="#60A4DC" transform="translate(588.6015625,433.8046875)"/>
  <path d="M0 0 C0.99 0.33 1.98 0.66 3 1 C2.29875 1.556875 1.5975 2.11375 0.875 2.6875 C-7.19803586 9.18102884 -14.5238133 15.90476662 -21 24 C-21.33 23.01 -21.66 22.02 -22 21 C-18.36097485 15.1815045 -13.58100555 9.98643254 -8 6 C-7.34 6 -6.68 6 -6 6 C-6 5.34 -6 4.68 -6 4 C-3.1875 1.8125 -3.1875 1.8125 0 0 Z " fill="#E5FAFD" transform="translate(90,321)"/>
  <path d="M0 0 C7.16497718 2.14949316 12.71783092 4.71783092 18 10 C18.845625 10.144375 19.69125 10.28875 20.5625 10.4375 C23 11 23 11 24.5625 13.4375 C25.036875 14.283125 25.51125 15.12875 26 16 C28.06700655 17.32793606 28.06700655 17.32793606 30 18 C29.67 18.99 29.34 19.98 29 21 C28.51233154 20.64284912 28.02466309 20.28569824 27.5222168 19.91772461 C14.89985315 10.67305829 14.89985315 10.67305829 1.7734375 2.171875 C1.18820312 1.78515625 0.60296875 1.3984375 0 1 C0 0.67 0 0.34 0 0 Z " fill="#337094" transform="translate(492,127)"/>
  <path d="M0 0 C0.66 0 1.32 0 2 0 C1.67 1.98 1.34 3.96 1 6 C0.01 6.33 -0.98 6.66 -2 7 C-2.33 8.98 -2.66 10.96 -3 13 C-3.99 13 -4.98 13 -6 13 C-6.33 14.98 -6.66 16.96 -7 19 C-7.66 19 -8.32 19 -9 19 C-9 19.66 -9 20.32 -9 21 C-9.66 21 -10.32 21 -11 21 C-11 19.68 -11 18.36 -11 17 C-10.34 17 -9.68 17 -9 17 C-8.87431641 15.95779297 -8.87431641 15.95779297 -8.74609375 14.89453125 C-7.81211479 11.27108409 -6.15295282 8.78348709 -4.0625 5.6875 C-2.99708984 4.08455078 -2.99708984 4.08455078 -1.91015625 2.44921875 C-1.27980469 1.64097656 -0.64945313 0.83273437 0 0 Z " fill="#53A6ED" transform="translate(729,333)"/>
  <path d="M0 0 C7.49848287 2.3934712 14.7674207 5.23663411 22.0625 8.1875 C23.21427734 8.65091797 24.36605469 9.11433594 25.55273438 9.59179688 C28.36945374 10.7254972 31.18517147 11.86161501 34 13 C34 13.66 34 14.32 34 15 C27.91399895 13.29074013 22.05610332 11.31673397 16.2265625 8.8671875 C14.16266825 8.063355 12.15872595 7.48300261 10 7 C10 6.34 10 5.68 10 5 C8.72125 4.690625 7.4425 4.38125 6.125 4.0625 C3.89898325 3.52394756 2.05260001 3.0263 0 2 C0 1.34 0 0.68 0 0 Z " fill="#E1F8FE" transform="translate(273,348)"/>
  <path d="M0 0 C0 0.66 0 1.32 0 2 C-2.26727333 3.17407021 -4.53834624 4.33939739 -6.8125 5.5 C-7.45509766 5.83386719 -8.09769531 6.16773437 -8.75976562 6.51171875 C-11.69547699 8.00239084 -13.66126517 9 -17 9 C-17.33 9.99 -17.66 10.98 -18 12 C-22.12121212 15.11875512 -22.12121212 15.11875512 -25.3125 14.6875 C-25.869375 14.460625 -26.42625 14.23375 -27 14 C-22.79545811 10.3398709 -18.29081396 7.85848897 -13.375 5.3125 C-12.2303125 4.70825195 -12.2303125 4.70825195 -11.0625 4.09179688 C-3.24901853 0 -3.24901853 0 0 0 Z " fill="#307294" transform="translate(285,83)"/>
  <path d="M0 0 C6.7186905 1.99613268 12.80734808 4.7291421 19 8 C19 8.66 19 9.32 19 10 C12.25 8.125 12.25 8.125 10 7 C10 6.34 10 5.68 10 5 C7.03 5.66 4.06 6.32 1 7 C0 2.25 0 2.25 0 0 Z " fill="#2B6F96" transform="translate(480,79)"/>
  <path d="M0 0 C1.48125366 0.00212242 1.48125366 0.00212242 2.99243164 0.00428772 C6.11998636 0.00984698 9.24746723 0.02239179 12.375 0.03515625 C14.50650938 0.04017652 16.63801988 0.0447385 18.76953125 0.04882812 C23.971379 0.05980303 29.17318422 0.07650013 34.375 0.09765625 C34.375 0.42765625 34.375 0.75765625 34.375 1.09765625 C32.50581909 1.13524048 32.50581909 1.13524048 30.59887695 1.17358398 C25.96759074 1.26788536 21.33644656 1.36805035 16.70532227 1.4699707 C14.70242642 1.51323364 12.69949575 1.55491472 10.6965332 1.5949707 C7.81450921 1.65288287 4.93265912 1.71651672 2.05078125 1.78125 C1.15788895 1.79796249 0.26499664 1.81467499 -0.654953 1.83189392 C-4.78581495 1.92992075 -8.57505936 2.22520939 -12.625 3.09765625 C-15.9375 2.66015625 -15.9375 2.66015625 -18.625 2.09765625 C-18.625 1.76765625 -18.625 1.43765625 -18.625 1.09765625 C-12.37410641 0.17219096 -6.31345843 -0.03455412 0 0 Z " fill="#DCF4F8" transform="translate(375.625,99.90234375)"/>
  <path d="M0 0 C5.12287 -0.04972917 10.24559702 -0.08587445 15.36865234 -0.10986328 C17.10858612 -0.11987218 18.8485033 -0.13348343 20.58837891 -0.15087891 C23.10062785 -0.17535354 25.61265288 -0.1865344 28.125 -0.1953125 C28.89303955 -0.20563507 29.6610791 -0.21595764 30.45239258 -0.22659302 C35.61638725 -0.22764695 40.03256351 0.57580442 45 2 C45 2.33 45 2.66 45 3 C43.18757948 3.02687279 41.37504767 3.04633715 39.5625 3.0625 C38.55316406 3.07410156 37.54382813 3.08570313 36.50390625 3.09765625 C34 3 34 3 33 2 C30.55391002 1.84019563 28.13268942 1.74070553 25.68359375 1.68359375 C24.58701195 1.6524221 24.58701195 1.6524221 23.46827698 1.62062073 C21.12478344 1.55504976 18.78117461 1.49620568 16.4375 1.4375 C14.85220145 1.39432192 13.26691471 1.35070787 11.68164062 1.30664062 C7.78787963 1.1993608 3.89400228 1.0981151 0 1 C0 0.67 0 0.34 0 0 Z " fill="#5FA5DC" transform="translate(203,282)"/>
  <path d="M0 0 C0.66 0.33 1.32 0.66 2 1 C1.34 9.91 0.68 18.82 0 28 C-0.99 28.33 -1.98 28.66 -3 29 C-2.69304703 24.91622977 -2.37847937 20.83308094 -2.0625 16.75 C-1.97548828 15.59113281 -1.88847656 14.43226563 -1.79882812 13.23828125 C-1.71181641 12.12324219 -1.62480469 11.00820313 -1.53515625 9.859375 C-1.456604 8.83295898 -1.37805176 7.80654297 -1.29711914 6.74902344 C-1.04329799 4.40060427 -0.64710829 2.26606418 0 0 Z " fill="#2D6B8F" transform="translate(142,266)"/>
  <path d="M0 0 C0.33 0.99 0.66 1.98 1 3 C-0.32 3.33 -1.64 3.66 -3 4 C-3 4.99 -3 5.98 -3 7 C-4.11375 7.45375 -5.2275 7.9075 -6.375 8.375 C-9.96199008 9.72465986 -9.96199008 9.72465986 -12 12 C-12.99 12 -13.98 12 -15 12 C-15 12.66 -15 13.32 -15 14 C-17.97 14.66 -20.94 15.32 -24 16 C-19.81315659 12.66544024 -15.1886083 10.09375096 -10.57617188 7.40429688 C-6.80549981 5.1766882 -3.35611396 2.83879389 0 0 Z " fill="#6CA9DA" transform="translate(691,376)"/>
  <path d="M0 0 C0.99 0.66 1.98 1.32 3 2 C-9.86956522 17.12173913 -9.86956522 17.12173913 -18 22 C-17.34 20.35 -16.68 18.7 -16 17 C-15.01 17 -14.02 17 -13 17 C-12.773125 16.4225 -12.54625 15.845 -12.3125 15.25 C-10.65238361 12.40408619 -8.60812043 11.00158079 -6 9 C-1.69457676 5.2370748 -1.69457676 5.2370748 0 0 Z " fill="#6AA8D6" transform="translate(701,375)"/>
  <path d="M0 0 C3.87647939 1.60060795 7.75091102 3.20611593 11.625 4.8125 C12.71941406 5.26431641 13.81382812 5.71613281 14.94140625 6.18164062 C16.00488281 6.62314453 17.06835938 7.06464844 18.1640625 7.51953125 C19.62513428 8.12438354 19.62513428 8.12438354 21.11572266 8.74145508 C24.13457978 10.05872344 27.06671231 11.50291997 30 13 C26.40740039 14.1975332 25.24774849 13.42453687 21.93066406 11.890625 C20.04547296 11.0209769 18.14676308 10.24922328 16.2109375 9.5 C15.57929688 9.2525 14.94765625 9.005 14.296875 8.75 C13.00884231 8.2473531 11.71976366 7.74737876 10.4296875 7.25 C6.73406772 5.79598566 3.25439533 4.29428636 0 2 C0 1.34 0 0.68 0 0 Z " fill="#DBF6FD" transform="translate(341,376)"/>
  <path d="M0 0 C0 0.99 0 1.98 0 3 C-0.99 3.33 -1.98 3.66 -3 4 C-3.28875 4.66 -3.5775 5.32 -3.875 6 C-5 8 -5 8 -7.625 8.75 C-8.40875 8.8325 -9.1925 8.915 -10 9 C-6.83047153 5.73991357 -3.60062011 2.77762123 0 0 Z M-12 9 C-11.34 9.33 -10.68 9.66 -10 10 C-13.85873847 13.30749011 -17.72545575 16.2520787 -22 19 C-22.66 18.34 -23.32 17.68 -24 17 C-23.21753906 16.50628906 -22.43507813 16.01257813 -21.62890625 15.50390625 C-20.61699219 14.86324219 -19.60507812 14.22257812 -18.5625 13.5625 C-17.55316406 12.92441406 -16.54382813 12.28632813 -15.50390625 11.62890625 C-13.15446165 10.22350458 -13.15446165 10.22350458 -12 9 Z " fill="#E1F9FE" transform="translate(684,396)"/>
  <path d="M0 0 C0.33 1.32 0.66 2.64 1 4 C0.01 4.66 -0.98 5.32 -2 6 C-2.33 6.99 -2.66 7.98 -3 9 C-4.62914112 10.72787694 -6.28552381 12.36042811 -8 14 C-9.4401645 15.43483055 -10.8775465 16.87245801 -12.3125 18.3125 C-13.54166667 19.54166667 -14.77083333 20.77083333 -16 22 C-16.66 21.67 -17.32 21.34 -18 21 C-17.28714844 20.23816406 -16.57429687 19.47632813 -15.83984375 18.69140625 C-10.24791558 12.67639492 -4.8916724 6.61127054 0 0 Z " fill="#DEF7FD" transform="translate(715,363)"/>
  <path d="M0 0 C3.69909473 0.60541175 6.71354402 1.65257655 10.08203125 3.28515625 C11.01337891 3.73310547 11.94472656 4.18105469 12.90429688 4.64257812 C13.86400391 5.11115234 14.82371094 5.57972656 15.8125 6.0625 C16.79154297 6.53494141 17.77058594 7.00738281 18.77929688 7.49414062 C21.18870167 8.65770684 23.59544007 9.82646296 26 11 C22.85497566 12.00776049 22.24912833 12.11131266 19.0625 10.6875 C18.051875 10.130625 17.04125 9.57375 16 9 C14.33584844 8.32707965 12.66884513 7.66119449 11 7 C9.05795974 6.13512377 7.12046548 5.25997215 5.1875 4.375 C4.21167969 3.92898438 3.23585938 3.48296875 2.23046875 3.0234375 C1.49441406 2.68570312 0.75835937 2.34796875 0 2 C0 1.34 0 0.68 0 0 Z " fill="#6AA9D7" transform="translate(399,337)"/>
  <path d="M0 0 C2.69129357 4.03694036 3.2060809 7.97378538 4.125 12.6875 C4.30675781 13.56083984 4.48851562 14.43417969 4.67578125 15.33398438 C5.73395492 20.66065559 6.1895954 25.57125176 6 31 C3.92731697 27.89097545 3.51946778 26.21769737 2.9296875 22.59765625 C2.66865234 21.01500977 2.66865234 21.01500977 2.40234375 19.40039062 C2.14130859 17.74813477 2.14130859 17.74813477 1.875 16.0625 C1.69324219 14.96486328 1.51148438 13.86722656 1.32421875 12.73632812 C0.62329921 8.41750433 0 4.38507912 0 0 Z " fill="#CBEAF2" transform="translate(589,255)"/>
  <path d="M0 0 C5.50719921 3.90510489 10.35827355 8.09717644 15 13 C14.01 13.33 13.02 13.66 12 14 C11.01 13.34 10.02 12.68 9 12 C9 11.34 9 10.68 9 10 C8.38125 9.9175 7.7625 9.835 7.125 9.75 C5 9 5 9 3.75 6.9375 C3.5025 6.298125 3.255 5.65875 3 5 C1.68 5 0.36 5 -1 5 C-0.67 3.35 -0.34 1.7 0 0 Z " fill="#296C94" transform="translate(550,122)"/>
  <path d="M0 0 C20.13218391 9.26436782 20.13218391 9.26436782 23 15 C18.05807458 13.85955567 15.3907454 12.75403955 12 9 C11.01 8.67 10.02 8.34 9 8 C9 7.34 9 6.68 9 6 C8.443125 5.896875 7.88625 5.79375 7.3125 5.6875 C4.5230899 4.85821592 2.3860936 3.65700944 0 2 C0 1.34 0 0.68 0 0 Z " fill="#327192" transform="translate(506,91)"/>
  <path d="M0 0 C0 0.33 0 0.66 0 1 C-2.99974538 1.48080596 -5.99977769 1.95968682 -9 2.4375 C-10.25876953 2.63956055 -10.25876953 2.63956055 -11.54296875 2.84570312 C-16.68651294 3.66308805 -21.82846341 4.3834858 -27 5 C-26 3 -26 3 -24.27734375 2.1484375 C-16.18855902 -0.52531772 -8.40946242 -0.28170656 0 0 Z " fill="#67A7DA" transform="translate(139,319)"/>
  <path d="M0 0 C0.66 0 1.32 0 2 0 C0.52875089 5.61910804 -2.30521302 9.71550204 -5.625 14.375 C-6.140625 15.11105469 -6.65625 15.84710938 -7.1875 16.60546875 C-8.45186254 18.40835607 -9.72274662 20.20623378 -11 22 C-11.6015625 20.140625 -11.6015625 20.140625 -12 18 C-10.375 15.75 -10.375 15.75 -8 13 C-6.67390724 10.88061961 -5.40337509 8.73638829 -4.1484375 6.57421875 C-3.76945313 6.05472656 -3.39046875 5.53523438 -3 5 C-2.34 5 -1.68 5 -1 5 C-0.67 3.35 -0.34 1.7 0 0 Z " fill="#DFF7FE" transform="translate(727,329)"/>
  <path d="M0 0 C0.33 0 0.66 0 1 0 C1.33 1.98 1.66 3.96 2 6 C7.94 6.33 13.88 6.66 20 7 C20 7.33 20 7.66 20 8 C9.605 8.99 9.605 8.99 -1 10 C-0.67 6.7 -0.34 3.4 0 0 Z " fill="#CEEDF8" transform="translate(180,274)"/>
  <path d="M0 0 C4.77749522 1.51197883 7.92598654 4.19875192 11.625 7.4375 C12.48351562 8.17323242 12.48351562 8.17323242 13.359375 8.92382812 C15.99702081 11.19649736 18.59303584 13.4820765 21 16 C14.59253662 15.0142364 10.38354248 10.38354248 6 6 C3.83379456 4.70480005 3.83379456 4.70480005 2 4 C2 3.34 2 2.68 2 2 C1.34 2 0.68 2 0 2 C0 1.34 0 0.68 0 0 Z " fill="#326F91" transform="translate(529,106)"/>
  <path d="M0 0 C0.99 0.33 1.98 0.66 3 1 C-1.95 4.63 -6.9 8.26 -12 12 C-12.33 11.34 -12.66 10.68 -13 10 C-12.67 9.34 -12.34 8.68 -12 8 C-12.66 8 -13.32 8 -14 8 C-14 7.34 -14 6.68 -14 6 C-10.25 4.875 -10.25 4.875 -8 6 C-7.45730469 5.55527344 -6.91460938 5.11054688 -6.35546875 4.65234375 C-5.64003906 4.08644531 -4.92460938 3.52054687 -4.1875 2.9375 C-3.47980469 2.36902344 -2.77210938 1.80054688 -2.04296875 1.21484375 C-1.03169922 0.61349609 -1.03169922 0.61349609 0 0 Z " fill="#60A8E6" transform="translate(680,397)"/>
  <path d="M0 0 C2.475 0.99 2.475 0.99 5 2 C5 2.66 5 3.32 5 4 C5.763125 4.020625 6.52625 4.04125 7.3125 4.0625 C10 5 10 5 11.75 8.3125 C13.48780488 13.43902439 13.48780488 13.43902439 14 16 C9.08419924 11.24277346 4.43022305 6.21202712 0 1 C0 0.67 0 0.34 0 0 Z " fill="#327094" transform="translate(540,166)"/>
  <path d="M0 0 C9.02917477 2.23180355 18.04180231 4.49474132 27 7 C27 7.33 27 7.66 27 8 C17.78590302 7.21914432 8.54127018 5.65376558 0 2 C0 1.34 0 0.68 0 0 Z " fill="#6CA6D7" transform="translate(512,383)"/>
  <path d="M0 0 C0.99 0.33 1.98 0.66 3 1 C2.38722388 3.96175123 1.74627478 5.38058783 0 8 C-1.32 8 -2.64 8 -4 8 C-4.33 8.66 -4.66 9.32 -5 10 C-5.66 10 -6.32 10 -7 10 C-7 9.34 -7 8.68 -7 8 C-6.34 8 -5.68 8 -5 8 C-4.731875 7.236875 -4.46375 6.47375 -4.1875 5.6875 C-3.05575888 3.12619116 -2.08776599 1.80307062 0 0 Z " fill="#55A5F1" transform="translate(714,355)"/>
  <path d="M0 0 C0.99 0.495 0.99 0.495 2 1 C4.65431164 9.4012616 6.09341438 17.36466567 4 26 C3.67 26 3.34 26 3 26 C2.01 17.42 1.02 8.84 0 0 Z " fill="#D0ECF4" transform="translate(631,264)"/>
  <path d="M0 0 C-1 2 -1 2 -4 3.0625 C-15.7386503 6.08792533 -15.7386503 6.08792533 -21 3 C-18.6263603 2.49265716 -16.25142575 1.99397614 -13.875 1.5 C-13.20984375 1.35691406 -12.5446875 1.21382813 -11.859375 1.06640625 C-7.83943578 0.2387717 -4.10095101 -0.15330658 0 0 Z " fill="#387697" transform="translate(353,63)"/>
  <path d="M0 0 C1 3 1 3 -0.328125 6.1796875 C-0.9585955 7.41668658 -1.59968087 8.6483196 -2.25 9.875 C-2.71986328 10.79345703 -2.71986328 10.79345703 -3.19921875 11.73046875 C-6.89021979 18.88274048 -6.89021979 18.88274048 -9 22 C-9.66 22 -10.32 22 -11 22 C-9.61674942 18.34001161 -7.96682085 14.97864809 -6.0625 11.5625 C-3.95254075 7.74496981 -1.90793882 3.92187425 0 0 Z " fill="#E0F7FD" transform="translate(51,378)"/>
  <path d="M0 0 C0.66 0.66 1.32 1.32 2 2 C-3.60522888 7.91535425 -8.85312299 13.02951277 -16 17 C-14.46593371 13.68532105 -13.13688367 11.96055229 -10 10 C-9.34 10 -8.68 10 -8 10 C-7.67 9.01 -7.34 8.02 -7 7 C-5.02043058 5.30911778 -3.02054804 3.64169528 -1 2 C-0.67 1.34 -0.34 0.68 0 0 Z " fill="#E0F8FE" transform="translate(702,363)"/>
  <path d="M0 0 C6.56708165 0.31776202 11.06673785 1.69358384 16.8359375 4.84375 C19.07690899 6.11905482 19.07690899 6.11905482 22 7 C22 7.66 22 8.32 22 9 C17.06678166 8.29807915 12.74025318 6.36469225 8.1875 4.4375 C7.00510742 3.9434668 7.00510742 3.9434668 5.79882812 3.43945312 C3.86416204 2.63041094 1.93184247 1.81576148 0 1 C0 0.67 0 0.34 0 0 Z " fill="#6CABD9" transform="translate(299,358)"/>
  <path d="M0 0 C0.99 0 1.98 0 3 0 C1.16753428 3.98712321 -1.23855775 7.58084504 -3.625 11.25 C-4.04523438 11.8996875 -4.46546875 12.549375 -4.8984375 13.21875 C-5.93045673 14.81368881 -6.96498028 16.40700669 -8 18 C-8.66 16.68 -9.32 15.36 -10 14 C-9.38125 13.773125 -8.7625 13.54625 -8.125 13.3125 C-5.30870772 11.57302536 -5.10147987 10.09791214 -4 7 C-2.72940753 4.62625747 -1.36556918 2.3214676 0 0 Z " fill="#DEF6FA" transform="translate(182,164)"/>
  <path d="M0 0 C0.33 1.32 0.66 2.64 1 4 C0.29875 4.495 -0.4025 4.99 -1.125 5.5 C-5.80050238 9.56565424 -9.35965315 14.39395551 -12 20 C-12.66 20 -13.32 20 -14 20 C-12.44553627 15.122521 -9.60965254 11.6654354 -6.4375 7.75 C-5.93025391 7.11320312 -5.42300781 6.47640625 -4.90039062 5.8203125 C-1.24503968 1.24503968 -1.24503968 1.24503968 0 0 Z " fill="#6FAAD8" transform="translate(69,344)"/>
  <path d="M0 0 C0.66 0.99 1.32 1.98 2 3 C1.55269531 3.42410156 1.10539063 3.84820312 0.64453125 4.28515625 C-3.44951902 8.25699606 -6.813901 12.26912573 -10 17 C-10.66 16.67 -11.32 16.34 -12 16 C-11.67 14.68 -11.34 13.36 -11 12 C-10.67 12.33 -10.34 12.66 -10 13 C-9.3503125 11.5459375 -9.3503125 11.5459375 -8.6875 10.0625 C-7 7 -7 7 -4 6 C-3.34 5.01 -2.68 4.02 -2 3 C-1.34 3 -0.68 3 0 3 C0 2.01 0 1.02 0 0 Z " fill="#2D6F92" transform="translate(232,164)"/>
  <path d="M0 0 C5.94650633 0.64784186 11.67387483 1.71983435 17.5 3.0625 C18.73363281 3.3419043 18.73363281 3.3419043 19.9921875 3.62695312 C21.9955717 4.08120885 23.9979003 4.54011599 26 5 C26 5.33 26 5.66 26 6 C18.25 7.125 18.25 7.125 16 6 C16 5.34 16 4.68 16 4 C15.14728516 3.92652344 15.14728516 3.92652344 14.27734375 3.8515625 C9.28918871 3.36856919 4.77400422 2.52361837 0 1 C0 0.67 0 0.34 0 0 Z " fill="#E3F8FE" transform="translate(474,429)"/>
  <path d="M0 0 C5.66828055 0.59468016 10.60322154 2.09242801 15.9375 4.0625 C16.71673828 4.34416016 17.49597656 4.62582031 18.29882812 4.91601562 C20.20140125 5.60467706 22.10101725 6.30149903 24 7 C24 7.33 24 7.66 24 8 C21.36 8 18.72 8 16 8 C16 7.34 16 6.68 16 6 C15.18015625 5.81824219 14.3603125 5.63648437 13.515625 5.44921875 C12.43796875 5.19785156 11.3603125 4.94648437 10.25 4.6875 C9.18265625 4.44386719 8.1153125 4.20023437 7.015625 3.94921875 C4.07789099 3.0245175 2.30705738 1.99907642 0 0 Z " fill="#DBF4F8" transform="translate(444,108)"/>
  <path d="M0 0 C0.99 0.33 1.98 0.66 3 1 C-3.2293444 5.47589931 -9.70636729 9.49398261 -17 12 C-17.66 11.67 -18.32 11.34 -19 11 C-16.73082897 8.73082897 -14.97866463 8.13801369 -12 7 C-10.26131907 6.18670397 -8.53194209 5.35321786 -6.8125 4.5 C-5.95269531 4.0771875 -5.09289062 3.654375 -4.20703125 3.21875 C-1.88445765 2.06924438 -1.88445765 2.06924438 0 0 Z " fill="#6DA9D8" transform="translate(663,409)"/>
  <path d="M0 0 C7.44302097 2.39690506 14.71837152 5.15262441 22 8 C22 8.33 22 8.66 22 9 C16.38170862 8.50059632 11.60831651 6.87577509 6.35546875 4.83984375 C4.10281284 3.88805281 4.10281284 3.88805281 2 4 C2 3.34 2 2.68 2 2 C1.34 2 0.68 2 0 2 C0 1.34 0 0.68 0 0 Z " fill="#E1F9FE" transform="translate(402,403)"/>
  <path d="M0 0 C0 0.66 0 1.32 0 2 C-10 6 -10 6 -12.76953125 7.0078125 C-15.15855242 7.78755785 -15.15855242 7.78755785 -16 10 C-17.65 10 -19.3 10 -21 10 C-17.34750945 6.85365982 -13.75775745 4.74491029 -9.375 2.75 C-8.24835938 2.22921875 -7.12171875 1.7084375 -5.9609375 1.171875 C-3 0 -3 0 0 0 Z " fill="#6DA8D6" transform="translate(139,295)"/>
  <path d="M0 0 C0.33 1.32 0.66 2.64 1 4 C-1.1875 6.75 -1.1875 6.75 -4 9 C-5.32 9 -6.64 9 -8 9 C-8 9.66 -8 10.32 -8 11 C-8.99 10.67 -9.98 10.34 -11 10 C-5.555 5.05 -5.555 5.05 0 0 Z " fill="#E3FBFE" transform="translate(696,385)"/>
  <path d="M0 0 C0.33 0 0.66 0 1 0 C1 2.64 1 5.28 1 8 C0.34 8 -0.32 8 -1 8 C-1.0825 8.5775 -1.165 9.155 -1.25 9.75 C-2.20531013 12.6159304 -3.78469173 13.9990764 -6 16 C-4.43551329 10.3856009 -2.83604813 5.13189662 0 0 Z " fill="#DEF5F9" transform="translate(197,220)"/>
  <path d="M0 0 C0.33 0 0.66 0 1 0 C1.042721 1.66611905 1.04063832 3.33382885 1 5 C0.67 5.33 0.34 5.66 0 6 C-0.185625 7.6396875 -0.185625 7.6396875 -0.375 9.3125 C-0.98322259 12.90101331 -1.46808669 14.46808669 -4 17 C-4.66 17 -5.32 17 -6 17 C-4.33846988 11.14340094 -2.52958084 5.5409866 0 0 Z " fill="#36759A" transform="translate(158,212)"/>
  <path d="M0 0 C-3.45058686 2.30039124 -5.94095502 2.4738275 -10 3 C-10.33 3.33 -10.66 3.66 -11 4 C-12.84891946 4.23363881 -14.70488031 4.41303635 -16.5625 4.5625 C-18.08037109 4.68818359 -18.08037109 4.68818359 -19.62890625 4.81640625 C-20.41136719 4.87699219 -21.19382812 4.93757813 -22 5 C-18.644661 2.76310733 -15.40369426 1.83264459 -11.5625 0.8125 C-10.55993164 0.52729492 -10.55993164 0.52729492 -9.53710938 0.23632812 C-6.06186139 -0.69706355 -3.41391321 -1.37080403 0 0 Z " fill="#D3EEF5" transform="translate(345,105)"/>
  <path d="M0 0 C0.6875 1.671875 0.6875 1.671875 1 4 C-0.75177546 7.80319672 -3.06055488 11.02151101 -6 14 C-9.9375 14.625 -9.9375 14.625 -13 14 C-12.46375 13.608125 -11.9275 13.21625 -11.375 12.8125 C-10.199375 11.9153125 -10.199375 11.9153125 -9 11 C-7.989375 10.236875 -6.97875 9.47375 -5.9375 8.6875 C-2.94061544 5.94566945 -1.55440967 3.71331199 0 0 Z " fill="#D8F2F9" transform="translate(635,620)"/>
  <path d="M0 0 C5.98812202 -0.31516432 9.47178312 0.44064033 15 3 C16.98821313 3.39764263 18.98732362 3.75455166 21 4 C21 4.66 21 5.32 21 6 C16.01155691 5.3900874 11.39844654 4.36525565 6.5625 2.9375 C5.32628906 2.57527344 4.09007812 2.21304687 2.81640625 1.83984375 C1.88699219 1.56269531 0.95757813 1.28554688 0 1 C0 0.67 0 0.34 0 0 Z " fill="#D8F3FC" transform="translate(514,383)"/>
  <path d="M0 0 C6.78982507 0.37035409 11.26884891 2.40476401 17 6 C17 6.66 17 7.32 17 8 C11.08030998 6.24009216 5.58365008 3.60305395 0 1 C0 0.67 0 0.34 0 0 Z " fill="#DDF6FC" transform="translate(397,335)"/>
  <path d="M0 0 C0 3.21536008 -0.34952303 4.31413064 -2 7 C-3.9453125 8.921875 -3.9453125 8.921875 -6.125 10.75 C-7.21167969 11.67039062 -7.21167969 11.67039062 -8.3203125 12.609375 C-8.87460938 13.06828125 -9.42890625 13.5271875 -10 14 C-10.66 13.67 -11.32 13.34 -12 13 C-10.18777319 11.02058257 -8.37523172 9.04145495 -6.5625 7.0625 C-6.04623047 6.49853516 -5.52996094 5.93457031 -4.99804688 5.35351562 C-1.11328125 1.11328125 -1.11328125 1.11328125 0 0 Z " fill="#75AEDA" transform="translate(82,330)"/>
  <path d="M0 0 C2.625 -0.1875 2.625 -0.1875 5 0 C0.85989729 4.54075781 -3.82390176 7.71842138 -9 11 C-9 10.01 -9 9.02 -9 8 C-8.34 8 -7.68 8 -7 8 C-7 7.34 -7 6.68 -7 6 C-5.33720673 4.9935725 -3.67016516 3.99414593 -2 3 C-1.34 2.01 -0.68 1.02 0 0 Z " fill="#E4FBFD" transform="translate(237,107)"/>
  <path d="M0 0 C1.47906892 -0.02689216 2.95827483 -0.04634621 4.4375 -0.0625 C5.26121094 -0.07410156 6.08492187 -0.08570313 6.93359375 -0.09765625 C9 0 9 0 10 1 C12.27983876 1.53092135 14.57194084 1.96317971 16.87109375 2.40234375 C19 3 19 3 21 5 C13.76410027 4.39700836 7.00629124 2.8849413 0 1 C0 0.67 0 0.34 0 0 Z " fill="#D4F0FB" transform="translate(535,389)"/>
  <path d="M0 0 C3.96 0.33 7.92 0.66 12 1 C12 1.99 12 2.98 12 4 C12.99 4 13.98 4 15 4 C15 4.66 15 5.32 15 6 C4.44191344 2.92482916 4.44191344 2.92482916 0 1 C0 0.67 0 0.34 0 0 Z " fill="#DEF6FD" transform="translate(312,299)"/>
  <path d="M0 0 C-1.31224548 3.93673644 -2.91910327 6.22719294 -6 9 C-6.66 8.67 -7.32 8.34 -8 8 C-7.34 5.69 -6.68 3.38 -6 1 C-3.92446352 0.4465236 -2.15634036 0 0 0 Z " fill="#246E99" transform="translate(221,180)"/>
  <path d="M0 0 C0.33 0.66 0.66 1.32 1 2 C0.22265625 4.1640625 0.22265625 4.1640625 -0.9375 6.625 C-1.31777344 7.44226563 -1.69804687 8.25953125 -2.08984375 9.1015625 C-2.54037109 10.04128906 -2.54037109 10.04128906 -3 11 C-4.65 10.67 -6.3 10.34 -8 10 C-7.34 7.69 -6.68 5.38 -6 3 C-5.67 3 -5.34 3 -5 3 C-5 4.65 -5 6.3 -5 8 C-4.34 8 -3.68 8 -3 8 C-2.690625 6.865625 -2.38125 5.73125 -2.0625 4.5625 C-1 1 -1 1 0 0 Z " fill="#72A6D5" transform="translate(31,416)"/>
  <path d="M0 0 C6.20477864 1.93624298 12.10825719 4.25609141 18 7 C13.76348387 8.41217204 10.88532069 6.75832031 7 5 C4.60889723 3.74152486 2.31463985 2.39842824 0 1 C0 0.67 0 0.34 0 0 Z " fill="#68A6D9" transform="translate(432,352)"/>
  <path d="M0 0 C2.39648832 0.23514604 4.79233611 0.47429409 7.1875 0.72265625 C8.97706267 0.89912701 10.76885506 1.05508565 12.5625 1.18359375 C13.34625 1.24675781 14.13 1.30992187 14.9375 1.375 C16.00291016 1.44847656 16.00291016 1.44847656 17.08984375 1.5234375 C19.46550155 2.1161374 20.43333133 3.16321605 22 5 C14.5403037 4.25403037 7.31048782 2.63253871 0 1 C0 0.67 0 0.34 0 0 Z " fill="#D8F4FD" transform="translate(260,285)"/>
  <path d="M0 0 C0.66 0 1.32 0 2 0 C0.89309248 6.40593286 -0.33945169 12.71363856 -2 19 C-2.33 19 -2.66 19 -3 19 C-2.88485851 16.95775363 -2.75742674 14.91619841 -2.625 12.875 C-2.55539063 11.73804688 -2.48578125 10.60109375 -2.4140625 9.4296875 C-2.00556124 6.04606384 -1.19032431 3.18387559 0 0 Z " fill="#E0F8FC" transform="translate(146,240)"/>
  <path d="M0 0 C2.55375615 3.17494007 4.37447153 6.48103661 6.1875 10.125 C6.71730469 11.17945313 7.24710938 12.23390625 7.79296875 13.3203125 C9 16 9 16 9 18 C6 17 6 17 4.90234375 14.8203125 C4.58394531 13.93085938 4.26554688 13.04140625 3.9375 12.125 C2.81795647 9.04063509 1.83737581 6.75606371 0 4 C0 2.68 0 1.36 0 0 Z " fill="#347193" transform="translate(605,191)"/>
  <path d="M0 0 C5.72210596 1.86763181 11.37661751 3.85289032 17 6 C16.01 6.66 15.02 7.32 14 8 C13.01 7.67 12.02 7.34 11 7 C11 6.34 11 5.68 11 5 C10.37351562 4.86722656 9.74703125 4.73445313 9.1015625 4.59765625 C8.28429687 4.42105469 7.46703125 4.24445313 6.625 4.0625 C5.81289063 3.88847656 5.00078125 3.71445312 4.1640625 3.53515625 C2 3 2 3 0 2 C0 1.34 0 0.68 0 0 Z " fill="#DFF7FD" transform="translate(385,396)"/>
  <path d="M0 0 C0.99 0 1.98 0 3 0 C3 1.98 3 3.96 3 6 C2.34 6 1.68 6 1 6 C0.67 7.32 0.34 8.64 0 10 C-0.66 10 -1.32 10 -2 10 C-1.46274105 6.62294375 -0.88935377 3.303314 0 0 Z " fill="#58A6E5" transform="translate(44,380)"/>
  <path d="M0 0 C5.77378925 0.4811491 9.95859836 2.18467181 15 5 C15 5.66 15 6.32 15 7 C9.76727367 5.36041242 4.84803364 3.61047965 0 1 C0 0.67 0 0.34 0 0 Z " fill="#DBF5FC" transform="translate(382,328)"/>
  <path d="M0 0 C0.95651196 2.58258228 1.03620881 3.8650399 0.3125 6.5625 C-1.12035293 9.22351258 -2.47085828 10.39821025 -5 12 C-4.67 9.36 -4.34 6.72 -4 4 C-3.01 3.67 -2.02 3.34 -1 3 C-0.67 2.01 -0.34 1.02 0 0 Z " fill="#56A6E6" transform="translate(741,311)"/>
  <path d="M0 0 C0.66 0 1.32 0 2 0 C1.52060632 4.71403788 1.03165952 8.66579301 -1 13 C-1.66 13 -2.32 13 -3 13 C-2.52060632 8.28596212 -2.03165952 4.33420699 0 0 Z " fill="#37779B" transform="translate(146,250)"/>
  <path d="M0 0 C0.33 0.66 0.66 1.32 1 2 C-2.3618226 6.25171681 -5.74828319 9.6381774 -10 13 C-10.66 12.67 -11.32 12.34 -12 12 C-8.04 8.04 -4.08 4.08 0 0 Z " fill="#E4FAFD" transform="translate(240,160)"/>
  <path d="M0 0 C1.32 0.66 2.64 1.32 4 2 C0.37 4.31 -3.26 6.62 -7 9 C-5 3 -5 3 -3 1 C-2.01 1.33 -1.02 1.66 0 2 C0 1.34 0 0.68 0 0 Z " fill="#2C7098" transform="translate(262,137)"/>
  <path d="M0 0 C0.66 0.33 1.32 0.66 2 1 C-1.96 6.94 -1.96 6.94 -6 13 C-6.33 12.01 -6.66 11.02 -7 10 C-5.8203125 7.7734375 -5.8203125 7.7734375 -4.125 5.375 C-3.57070313 4.57835937 -3.01640625 3.78171875 -2.4453125 2.9609375 C-1 1 -1 1 0 0 Z " fill="#DEF7FD" transform="translate(54,361)"/>
  <path d="M0 0 C0.33 1.32 0.66 2.64 1 4 C0.01 4 -0.98 4 -2 4 C-2.4021875 5.2065625 -2.4021875 5.2065625 -2.8125 6.4375 C-3.4003125 7.7059375 -3.4003125 7.7059375 -4 9 C-4.99 9.33 -5.98 9.66 -7 10 C-5.76075855 5.04303419 -4.21422242 2.88341534 0 0 Z " fill="#56A6E9" transform="translate(63,356)"/>
  <path d="M0 0 C3 0 3 0 5.0625 1.5625 C7.44351262 4.55796749 8.14658352 7.30186193 9 11 C8.01 11.495 8.01 11.495 7 12 C3.535 6.06 3.535 6.06 0 0 Z " fill="#317396" transform="translate(560,191)"/>
  <path d="M0 0 C-2.12232979 1.17176518 -4.24757791 2.33754785 -6.375 3.5 C-6.97828125 3.83386719 -7.5815625 4.16773437 -8.203125 4.51171875 C-12.7734375 7 -12.7734375 7 -15 7 C-15 6.01 -15 5.02 -15 4 C-13.06767179 3.13419713 -11.12892806 2.28270059 -9.1875 1.4375 C-8.10855469 0.96183594 -7.02960938 0.48617187 -5.91796875 -0.00390625 C-3 -1 -3 -1 0 0 Z " fill="#3B7393" transform="translate(298,120)"/>
  <path d="M0 0 C0.66 0.33 1.32 0.66 2 1 C0.09118566 2.03544174 -1.82739204 3.05290085 -3.75 4.0625 C-4.81734375 4.63097656 -5.8846875 5.19945313 -6.984375 5.78515625 C-10.02593537 7.01044806 -11.04893565 7.25348607 -14 6 C-12.23002526 5.18563132 -10.45898848 4.3735706 -8.6875 3.5625 C-7.70136719 3.11003906 -6.71523438 2.65757813 -5.69921875 2.19140625 C-3 1 -3 1 0 0 Z " fill="#D5EFF6" transform="translate(312,113)"/>
  <path d="M0 0 C0.66 0.99 1.32 1.98 2 3 C1.69320312 3.56203125 1.38640625 4.1240625 1.0703125 4.703125 C-0.02957585 7.06346934 -0.60095851 9.20465562 -1.125 11.75 C-1.29257813 12.54921875 -1.46015625 13.3484375 -1.6328125 14.171875 C-1.75398437 14.77515625 -1.87515625 15.3784375 -2 16 C-2.66 15.67 -3.32 15.34 -4 15 C-3.52229477 13.06213915 -3.04278429 11.12472326 -2.5625 9.1875 C-2.29566406 8.10855469 -2.02882812 7.02960938 -1.75390625 5.91796875 C-1.23922588 3.9259157 -0.65062825 1.95188476 0 0 Z " fill="#3C7898" transform="translate(151,230)"/>
  <path d="M0 0 C1.04449911 3.13349732 0.93423645 3.98968256 0 7 C-0.66 7 -1.32 7 -2 7 C-2.33 7.99 -2.66 8.98 -3 10 C-3.66 10 -4.32 10 -5 10 C-5.33 11.32 -5.66 12.64 -6 14 C-7 11 -7 11 -6.25 9 C-5.00782219 7.01251551 -3.64896479 5.64896479 -2 4 C-0.82425289 1.90010348 -0.82425289 1.90010348 0 0 Z " fill="#2B729B" transform="translate(166,198)"/>
  <path d="M0 0 C3.50695293 0.5653911 5.02732613 1.68722726 7.3125 4.375 C7.84488281 4.98085937 8.37726562 5.58671875 8.92578125 6.2109375 C9.28027344 6.80132812 9.63476562 7.39171875 10 8 C9.67 8.99 9.34 9.98 9 11 C7.87278564 9.73113036 6.74831342 8.45982438 5.625 7.1875 C4.99851562 6.47980469 4.37203125 5.77210938 3.7265625 5.04296875 C2 3 2 3 0 0 Z " fill="#D7F1F7" transform="translate(567,138)"/>
  <path d="M0 0 C0.5859375 1.90234375 0.5859375 1.90234375 1 4 C-0.375 5.5625 -0.375 5.5625 -2 7 C-2.33 7.99 -2.66 8.98 -3 10 C-5.0625 11.1875 -5.0625 11.1875 -7 12 C-5.44298069 7.32894208 -2.91552627 3.91294315 0 0 Z " fill="#DEF5FD" transform="translate(62,362)"/>
  <path d="M0 0 C0.66 0.99 1.32 1.98 2 3 C1.1875 6.5 1.1875 6.5 0 10 C-0.33 10.99 -0.66 11.98 -1 13 C-1.99 13.33 -2.98 13.66 -4 14 C-3.52188823 12.22888156 -3.0424722 10.45811517 -2.5625 8.6875 C-2.29566406 7.70136719 -2.02882812 6.71523437 -1.75390625 5.69921875 C-1.21920575 3.78482474 -0.62855462 1.88566385 0 0 Z " fill="#D9F2F7" transform="translate(190,236)"/>
  <path d="M0 0 C0.99 0 1.98 0 3 0 C4.71767682 3.98188718 6.41037341 7.96479403 8 12 C7.01 12.495 7.01 12.495 6 13 C4.99491199 11.21118264 3.99607264 9.41885304 3 7.625 C2.1646875 6.12839844 2.1646875 6.12839844 1.3125 4.6015625 C0 2 0 2 0 0 Z " fill="#387595" transform="translate(568,203)"/>
  <path d="M0 0 C0.66 0.99 1.32 1.98 2 3 C1.67386719 3.51949219 1.34773437 4.03898438 1.01171875 4.57421875 C-1.36176368 8.36198865 -3.71775284 12.15621531 -6 16 C-6.33 15.34 -6.66 14.68 -7 14 C-5.92481882 11.55667274 -4.80191434 9.23245477 -3.5625 6.875 C-3.22412109 6.21628906 -2.88574219 5.55757812 -2.53710938 4.87890625 C-1.69850074 3.24893453 -0.85015189 1.62398091 0 0 Z " fill="#397293" transform="translate(169,189)"/>
  <path d="M0 0 C4.91970564 3.60778414 6.96940865 6.24665785 9 12 C8.01 12 7.02 12 6 12 C4 8 2 4 0 0 Z " fill="#246A91" transform="translate(566,138)"/>
  <path d="M0 0 C7.81636537 1.91722169 7.81636537 1.91722169 10 5 C10 5.66 10 6.32 10 7 C10.66 7.33 11.32 7.66 12 8 C8.21516391 8 7.22592069 6.89417485 4.3125 4.5625 C3.50425781 3.92441406 2.69601562 3.28632812 1.86328125 2.62890625 C1.24839844 2.09136719 0.63351562 1.55382812 0 1 C0 0.67 0 0.34 0 0 Z " fill="#D8F1F8" transform="translate(536,110)"/>
  <path d="M0 0 C0.93045933 2.55144824 1.08564091 3.74006478 0.22265625 6.359375 C-0.16019531 7.14828125 -0.54304688 7.9371875 -0.9375 8.75 C-1.50791016 9.94882812 -1.50791016 9.94882812 -2.08984375 11.171875 C-2.39019531 11.77515625 -2.69054688 12.3784375 -3 13 C-3.66 13 -4.32 13 -5 13 C-4.54554036 11.58208592 -4.08625056 10.16571954 -3.625 8.75 C-3.24214844 7.56664062 -3.24214844 7.56664062 -2.8515625 6.359375 C-2.04826333 4.13372042 -1.10288338 2.09068328 0 0 Z " fill="#DBF5FC" transform="translate(39,400)"/>
  <path d="M0 0 C0 0.66 0 1.32 0 2 C-1.78614318 3.03046722 -3.57910018 4.04913236 -5.375 5.0625 C-6.87160156 5.91521484 -6.87160156 5.91521484 -8.3984375 6.78515625 C-9.25695312 7.18605469 -10.11546875 7.58695312 -11 8 C-11.66 7.67 -12.32 7.34 -13 7 C-11.21190303 5.82786955 -9.41940875 4.66244474 -7.625 3.5 C-6.62726563 2.8503125 -5.62953125 2.200625 -4.6015625 1.53125 C-2 0 -2 0 0 0 Z " fill="#DDF7FD" transform="translate(102,329)"/>
  <path d="M0 0 C1.45922693 0.11409593 2.91740598 0.24165544 4.375 0.375 C5.59316406 0.47941406 5.59316406 0.47941406 6.8359375 0.5859375 C9 1 9 1 11 3 C10.67 3.33 10.34 3.66 10 4 C5.49797318 3.66651653 2.99253414 3.41479355 0 0 Z " fill="#63A6DD" transform="translate(469,425)"/>
  <path d="M0 0 C0.33 0.66 0.66 1.32 1 2 C-6.28571429 6.57142857 -6.28571429 6.57142857 -11 6 C-7.58983503 3.13546142 -4.09305456 1.65296434 0 0 Z " fill="#D9F4FC" transform="translate(651,418)"/>
  <path d="M0 0 C1.69433918 3.0469629 2.49467112 5.82821466 3.125 9.25 C3.29257812 10.14203125 3.46015625 11.0340625 3.6328125 11.953125 C3.75398437 12.62859375 3.87515625 13.3040625 4 14 C3.34 14 2.68 14 2 14 C0.02905192 9.07262981 -0.1799928 5.21979128 0 0 Z " fill="#3D7698" transform="translate(624,236)"/>
  <path d="M0 0 C0.99 0.33 1.98 0.66 3 1 C0.36 3.64 -2.28 6.28 -5 9 C-5.33 8.01 -5.66 7.02 -6 6 C-4.75 3.8125 -4.75 3.8125 -3 2 C-2.01 2 -1.02 2 0 2 C0 1.34 0 0.68 0 0 Z " fill="#437C9A" transform="translate(240,157)"/>
  <path d="M0 0 C4.24822374 0.47202486 6.19989709 2.96655518 9 6 C8.67 6.99 8.34 7.98 8 9 C6.66368764 7.6905332 5.33102075 6.37734515 4 5.0625 C3.2575 4.33160156 2.515 3.60070312 1.75 2.84765625 C0 1 0 1 0 0 Z " fill="#EBFEFE" transform="translate(558,128)"/>
  <path d="M0 0 C1 4 1 4 0.00390625 5.921875 C-0.47175781 6.52515625 -0.94742188 7.1284375 -1.4375 7.75 C-1.91058594 8.36359375 -2.38367188 8.9771875 -2.87109375 9.609375 C-3.24363281 10.06828125 -3.61617187 10.5271875 -4 11 C-4.99 10.67 -5.98 10.34 -7 10 C-3.535 5.05 -3.535 5.05 0 0 Z " fill="#DEF8FD" transform="translate(723,351)"/>
  <path d="M0 0 C0.93045933 2.55144824 1.08564091 3.74006478 0.22265625 6.359375 C-0.16019531 7.14828125 -0.54304687 7.9371875 -0.9375 8.75 C-1.50791016 9.94882812 -1.50791016 9.94882812 -2.08984375 11.171875 C-2.39019531 11.77515625 -2.69054687 12.3784375 -3 13 C-3.66 13 -4.32 13 -5 13 C-4.54554036 11.58208592 -4.08625056 10.16571954 -3.625 8.75 C-3.24214844 7.56664062 -3.24214844 7.56664062 -2.8515625 6.359375 C-2.04826333 4.13372042 -1.10288338 2.09068328 0 0 Z " fill="#DAF4FC" transform="translate(745,309)"/>
  <path d="M0 0 C1 2 1 2 0.6875 4.0625 C0 6 0 6 -2 7 C-2.33 7.99 -2.66 8.98 -3 10 C-4.32 10.33 -5.64 10.66 -7 11 C-4.69 7.37 -2.38 3.74 0 0 Z " fill="#397597" transform="translate(183,167)"/>
  <path d="M0 0 C3.26008643 3.16952847 6.22237877 6.39937989 9 10 C6 10 6 10 4.39453125 8.57421875 C3.61142578 7.64029297 3.61142578 7.64029297 2.8125 6.6875 C2.01779297 5.76517578 2.01779297 5.76517578 1.20703125 4.82421875 C0 3 0 3 0 0 Z " fill="#DFF6FA" transform="translate(536,162)"/>
  <path d="M0 0 C4.84659077 0.59104765 8.60748167 1.97944157 13 4 C13 4.66 13 5.32 13 6 C9.88452559 5.32116957 7.14862279 4.25893098 4.25 2.9375 C3.45078125 2.57527344 2.6515625 2.21304688 1.828125 1.83984375 C1.22484375 1.56269531 0.6215625 1.28554687 0 1 C0 0.67 0 0.34 0 0 Z " fill="#D8F2F8" transform="translate(487,81)"/>
  <path d="M0 0 C0.99 0.33 1.98 0.66 3 1 C1.54634731 2.17249353 0.08692581 3.33783816 -1.375 4.5 C-2.18710937 5.1496875 -2.99921875 5.799375 -3.8359375 6.46875 C-6 8 -6 8 -8 8 C-8 7.34 -8 6.68 -8 6 C-6.35546875 4.45703125 -6.35546875 4.45703125 -4.1875 2.8125 C-3.47980469 2.26207031 -2.77210938 1.71164062 -2.04296875 1.14453125 C-1.36878906 0.76683594 -0.69460938 0.38914062 0 0 Z " fill="#6EA8D4" transform="translate(680,397)"/>
  <path d="M0 0 C8.57142857 0.85714286 8.57142857 0.85714286 12 3 C12 3.66 12 4.32 12 5 C10.56068883 4.54738642 9.12361001 4.08767021 7.6875 3.625 C6.88699219 3.36976563 6.08648437 3.11453125 5.26171875 2.8515625 C3 2 3 2 0 0 Z " fill="#DEF8FD" transform="translate(450,359)"/>
  <path d="M0 0 C1 3 1 3 0.3125 5.625 C-1 8 -1 8 -3.125 8.8125 C-3.74375 8.874375 -4.3625 8.93625 -5 9 C-3.7508258 5.54074837 -2.32472205 2.85306797 0 0 Z " fill="#DBF0F6" transform="translate(219,183)"/>
  <path d="M0 0 C0.66 0.33 1.32 0.66 2 1 C1.071875 1.3403125 1.071875 1.3403125 0.125 1.6875 C-2.61410209 3.37929835 -3.05024472 4.99244161 -4 8 C-4.66 8 -5.32 8 -6 8 C-5.65120368 4.74456771 -4.97866739 3.98126893 -2.4375 1.75 C-1.633125 1.1725 -0.82875 0.595 0 0 Z " fill="#276B91" transform="translate(201,146)"/>
  <path d="M0 0 C0.66 0.33 1.32 0.66 2 1 C-0.31 3.64 -2.62 6.28 -5 9 C-5.33 8.01 -5.66 7.02 -6 6 C-4.71034824 4.62437146 -3.37310707 3.29233607 -2 2 C-1.34 2 -0.68 2 0 2 C0 1.34 0 0.68 0 0 Z " fill="#D6F1F8" transform="translate(208,134)"/>
  <path d="M0 0 C0.33 0 0.66 0 1 0 C1.13277344 0.61488281 1.26554688 1.22976563 1.40234375 1.86328125 C1.57894531 2.67152344 1.75554687 3.47976563 1.9375 4.3125 C2.19853516 5.51326172 2.19853516 5.51326172 2.46484375 6.73828125 C2.99886159 9.145401 2.99886159 9.145401 4 12 C3.01 12 2.02 12 1 12 C-0.47075246 7.58774263 -1.36884358 4.51718381 0 0 Z " fill="#317194" transform="translate(140,612)"/>
  <path d="M0 0 C0.75 1.5625 0.75 1.5625 1 4 C-0.13084437 6.50286409 -1.52139516 8.67007722 -3 11 C-3.66 11 -4.32 11 -5 11 C-3.55049545 7.2089881 -1.84827434 3.6125362 0 0 Z " fill="#DCF6FC" transform="translate(734,332)"/>
  <path d="M0 0 C1.32 0.33 2.64 0.66 4 1 C1.03 2.65 -1.94 4.3 -5 6 C-5.33 5.34 -5.66 4.68 -6 4 C-5.34 3.34 -4.68 2.68 -4 2 C-2.68 2 -1.36 2 0 2 C0 1.34 0 0.68 0 0 Z " fill="#DEF7FC" transform="translate(110,306)"/>
  <path d="M0 0 C3.28788824 3.11016455 5.83735988 6.01618925 8 10 C4.57352289 8.85784096 3.29385328 7.75262393 1 5 C0.25 2.25 0.25 2.25 0 0 Z " fill="#DBF5FA" transform="translate(552,181)"/>
  <path d="M0 0 C4 1 4 1 5.8125 3.3125 C7 6 7 6 6 10 C4.02 6.7 2.04 3.4 0 0 Z " fill="#DBF4FA" transform="translate(594,172)"/>
  <path d="M0 0 C2.64 1.98 5.28 3.96 8 6 C6.68 6.33 5.36 6.66 4 7 C0 2.25 0 2.25 0 0 Z " fill="#D8F0F7" transform="translate(516,144)"/>
  <path d="M0 0 C0.99 0.33 1.98 0.66 3 1 C3 1.66 3 2.32 3 3 C3.99 3.33 4.98 3.66 6 4 C6 4.66 6 5.32 6 6 C2.62496331 4.8141763 0.35277269 3.72426311 -2 1 C-1.34 0.67 -0.68 0.34 0 0 Z " fill="#DAF2F7" transform="translate(513,92)"/>
  <path d="M0 0 C1.32 0.33 2.64 0.66 4 1 C1.03 3.475 1.03 3.475 -2 6 C-2.33 4.68 -2.66 3.36 -3 2 C-2.01 2 -1.02 2 0 2 C0 1.34 0 0.68 0 0 Z " fill="#6EADE1" transform="translate(70,349)"/>
  <path d="M0 0 C0.99 0 1.98 0 3 0 C1.68775452 3.93673644 0.08089673 6.22719294 -3 9 C-3 8.01 -3 7.02 -3 6 C-2.34 6 -1.68 6 -1 6 C-0.67 4.02 -0.34 2.04 0 0 Z " fill="#6AA6D6" transform="translate(723,346)"/>
  <path d="M0 0 C0.66 0.33 1.32 0.66 2 1 C1.67 4.3 1.34 7.6 1 11 C-1.78637633 6.8204355 -0.79562512 4.85331323 0 0 Z " fill="#39789C" transform="translate(142,266)"/>
  <path d="M0 0 C0.33 0.99 0.66 1.98 1 3 C-1.3125 4.5625 -1.3125 4.5625 -4 6 C-4.99 5.67 -5.98 5.34 -7 5 C-4.69 3.35 -2.38 1.7 0 0 Z " fill="#DFF3F7" transform="translate(263,140)"/>
  <path d="M0 0 C2.31 1.98 4.62 3.96 7 6 C6.01 6.33 5.02 6.66 4 7 C1 5 1 5 0.3125 2.375 C0.209375 1.59125 0.10625 0.8075 0 0 Z " fill="#407899" transform="translate(558,129)"/>
  <path d="M0 0 C-1.4375 1.5625 -1.4375 1.5625 -4 3 C-7.05380927 2.96846324 -9.99653222 2.53266629 -13 2 C-13 1.67 -13 1.34 -13 1 C-8.62426048 0.40667939 -4.42471556 -0.13827236 0 0 Z " fill="#C3E0EB" transform="translate(370,100)"/>
  <path d="M0 0 C1.32 0.66 2.64 1.32 4 2 C2.02 3.32 0.04 4.64 -2 6 C-2 3 -2 3 0 0 Z " fill="#E0F5FA" transform="translate(246,100)"/>
  <path d="M0 0 C2.31 0 4.62 0 7 0 C7 0.66 7 1.32 7 2 C7.99 2.33 8.98 2.66 10 3 C8 4 8 4 6.0546875 3.44140625 C5.33539063 3.15136719 4.61609375 2.86132812 3.875 2.5625 C3.15054687 2.27503906 2.42609375 1.98757813 1.6796875 1.69140625 C0.84824219 1.34916016 0.84824219 1.34916016 0 1 C0 0.67 0 0.34 0 0 Z " fill="#D8F2FC" transform="translate(494,376)"/>
  <path d="M0 0 C0.99 0.33 1.98 0.66 3 1 C3.33 3.97 3.66 6.94 4 10 C1.81024227 6.71536341 1.00193437 3.79303725 0 0 Z " fill="#DEF7FC" transform="translate(619,220)"/>
  <path d="M0 0 C1.8125 0.125 1.8125 0.125 4 1 C5.75 4.0625 5.75 4.0625 7 7 C6.01 7 5.02 7 4 7 C2.02 3.535 2.02 3.535 0 0 Z " fill="#307195" transform="translate(554,182)"/>
  <path d="M0 0 C0.66 0.33 1.32 0.66 2 1 C1.67 1.99 1.34 2.98 1 4 C0.34 4 -0.32 4 -1 4 C-2.36161311 4.96113866 -3.69855198 5.95884159 -5 7 C-3.75023244 3.34683329 -3.32901247 2.21934164 0 0 Z " fill="#276B93" transform="translate(189,161)"/>
  <path d="M0 0 C3.45925163 1.2491742 6.14693203 2.67527795 9 5 C4.73350364 5 3.36683915 4.43160605 0 2 C0 1.34 0 0.68 0 0 Z " fill="#D7F0F6" transform="translate(488,126)"/>
  <path d="M0 0 C3.95820859 0.56545837 6.6659053 1.80902348 10 4 C9.67 4.66 9.34 5.32 9 6 C6.03 4.35 3.06 2.7 0 1 C0 0.67 0 0.34 0 0 Z " fill="#397395" transform="translate(481,121)"/>
  <path d="M0 0 C2.25 -0.3125 2.25 -0.3125 5 0 C7.3125 2.5 7.3125 2.5 9 5 C5.9168649 3.80100302 2.93720508 2.52299523 0 1 C0 0.67 0 0.34 0 0 Z " fill="#DAF3F8" transform="translate(502,88)"/>
  <path d="M0 0 C6.625 -0.125 6.625 -0.125 10 1 C10 1.66 10 2.32 10 3 C3.375 2.25 3.375 2.25 0 0 Z " fill="#D4EEF5" transform="translate(450,68)"/>
  <path d="M0 0 C1.45823212 -0.0270043 2.91660675 -0.04639787 4.375 -0.0625 C5.18710937 -0.07410156 5.99921875 -0.08570312 6.8359375 -0.09765625 C9 0 9 0 11 1 C11 1.66 11 2.32 11 3 C6.88425629 2.5251065 3.63616656 1.9789756 0 0 Z " fill="#D7F2F8" transform="translate(438,65)"/>
  <path d="M0 0 C0.66 0 1.32 0 2 0 C1.01 3.3 0.02 6.6 -1 10 C-1.33 10 -1.66 10 -2 10 C-1.85950482 8.52031676 -1.71245174 7.04125484 -1.5625 5.5625 C-1.48128906 4.73878906 -1.40007813 3.91507812 -1.31640625 3.06640625 C-1 1 -1 1 0 0 Z " fill="#DDF8FE" transform="translate(26,412)"/>
  <path d="M0 0 C2.97 0.33 5.94 0.66 9 1 C9.33 1.99 9.66 2.98 10 4 C6.7 3.01 3.4 2.02 0 1 C0 0.67 0 0.34 0 0 Z " fill="#DAF6FE" transform="translate(467,366)"/>
  <path d="M0 0 C0.66 0.66 1.32 1.32 2 2 C0.35 3.65 -1.3 5.3 -3 7 C-3.33 5.35 -3.66 3.7 -4 2 C-3.01 2.495 -3.01 2.495 -2 3 C-1.34 2.01 -0.68 1.02 0 0 Z " fill="#357497" transform="translate(224,174)"/>
  <path d="M0 0 C3 1 3 1 4.75 3.4375 C5.36875 4.7059375 5.36875 4.7059375 6 6 C5.67 6.66 5.34 7.32 5 8 C0 2.25 0 2.25 0 0 Z " fill="#256892" transform="translate(532,155)"/>
  <path d="M0 0 C0.99 0.33 1.98 0.66 3 1 C0.525 4.465 0.525 4.465 -2 8 C-2.33 6.68 -2.66 5.36 -3 4 C-1.5625 1.75 -1.5625 1.75 0 0 Z " fill="#E1F7FC" transform="translate(192,151)"/>
  <path d="M0 0 C0.99 0.33 1.98 0.66 3 1 C1.35 2.98 -0.3 4.96 -2 7 C-2.33 6.01 -2.66 5.02 -3 4 C-2.34 4 -1.68 4 -1 4 C-0.67 2.68 -0.34 1.36 0 0 Z " fill="#D0EBF2" transform="translate(217,124)"/>
  <path d="M0 0 C0.66 0.33 1.32 0.66 2 1 C-0.64 2.65 -3.28 4.3 -6 6 C-6.66 5.34 -7.32 4.68 -8 4 C-6.71349294 3.30289269 -5.42059335 2.61757124 -4.125 1.9375 C-3.40570313 1.55464844 -2.68640625 1.17179687 -1.9453125 0.77734375 C-1.30335938 0.52082031 -0.66140625 0.26429687 0 0 Z " fill="#E0F6FC" transform="translate(296,120)"/>
  <path d="M0 0 C2.625 -0.1875 2.625 -0.1875 5 0 C3.35 1.65 1.7 3.3 0 5 C-0.66 4.34 -1.32 3.68 -2 3 C-1.34 2.01 -0.68 1.02 0 0 Z " fill="#D8F2F7" transform="translate(237,107)"/>
  <path d="M0 0 C-2 2 -2 2 -3.9453125 2.1953125 C-5.96354167 2.13020833 -7.98177083 2.06510417 -10 2 C-6.16991045 -0.55339303 -4.41711378 -1.47237126 0 0 Z " fill="#427D9E" transform="translate(327,69)"/>
</svg>
